<?xml version="1.0" standalone="yes"?>
<svg xmlns="http://www.w3.org/2000/svg" width="589" height="416">
<path style="fill:#f7fafc; stroke:none;" d="M0 0L0 416L223 416L275 416C280.973 416 290.398 418.343 292 411L251 411L251 391L281 391L293.682 390.397L296 384L254 384C258.499 369.178 296.11 389.419 298 373L265 373L252.603 371.397L251 352L302 352L303 345L254 345C256.876 339.784 262.705 341 268 341L304 341L304 335L266 335L252.603 333.397L251 314L308 314L309 307L262 307C257.459 307 249 305.368 245.742 309.318C242.113 313.718 244 323.63 244 329L243 329C236.433 314.932 232.848 301.137 244.21 288.004C248.107 283.5 253.464 281.388 257.57 277.366C263.679 271.382 264.499 262.328 272.001 256.529C285.345 246.215 293.395 254.846 307 254.347C315.207 254.046 321.186 248.934 330 251.04C345.849 254.828 346.663 266.309 355.563 276.61C358.045 279.483 362.088 280.901 364.996 283.329C380.602 296.36 378.044 311.558 371.213 328C368.104 335.482 370.178 340.88 360 341L360 345C374.789 345.48 375.228 378.82 360 379L360 384C374.315 384.465 370.871 405.923 369 416L589 416L589 0L0 0z"/>
<path style="fill:#b6d3e7; stroke:none;" d="M211 19L212 20L211 19z"/>
<path style="fill:#68c5ff; stroke:none;" d="M203 41L301 41L305 19L236 19C228.059 19 214.734 16.4602 208.055 21.5139C201.86 26.2013 203 34.1337 203 41z"/>
<path style="fill:#31acff; stroke:none;" d="M305 19L301 41L410 41C410 35.2005 411.602 26.8509 406.772 22.5687C399.927 16.4998 386.427 19 378 19L305 19z"/>
<path style="fill:#68c5ff; stroke:none;" d="M400.667 19.3333L401.333 19.6667L400.667 19.3333z"/>
<path style="fill:#b6d3e7; stroke:none;" d="M402 19L403 20L402 19z"/>
<path style="fill:#68c5ff; stroke:none;" d="M404 20L405 21L404 20z"/>
<path style="fill:#b6d3e7; stroke:none;" d="M207 21L208 22L207 21z"/>
<path style="fill:#68c5ff; stroke:none;" d="M405 21L406 22L405 21z"/>
<path style="fill:#b6d3e7; stroke:none;" d="M406 21L407 22L406 21M206 22L207 23L206 22M407 22L408 23L407 22M205 23L206 24L205 23M408 23L409 24L408 23z"/>
<path style="fill:#68c5ff; stroke:none;" d="M356.667 25.3333L357.333 25.6667L356.667 25.3333M375 25L376 26L375 25M394 25L395 26L394 25z"/>
<path style="fill:#b6d3e7; stroke:none;" d="M409 25L410 26L409 25z"/>
<path style="fill:#68c5ff; stroke:none;" d="M354 26L355 27L354 26z"/>
<path style="fill:#f7fafc; stroke:none;" d="M355.314 27.0864C351.338 29.3462 354.463 35.9751 358.686 33.7122C362.708 31.5569 359.45 24.7356 355.314 27.0864z"/>
<path style="fill:#b6d3e7; stroke:none;" d="M359 26L360 27L359 26M373 26L372 28L373 26z"/>
<path style="fill:#f7fafc; stroke:none;" d="M374.314 27.0864C370.351 29.3455 373.411 36.1993 377.686 33.7624C381.645 31.5055 378.472 24.7163 374.314 27.0864z"/>
<path style="fill:#68c5ff; stroke:none;" d="M378 26L379 27L378 26M391 26L390 28L391 26z"/>
<path style="fill:#b6d3e7; stroke:none;" d="M392 26L393 27L392 26z"/>
<path style="fill:#f7fafc; stroke:none;" d="M393.214 26.8511C388.505 28.4779 391.057 35.783 395.786 34.1489C400.495 32.5221 397.943 25.217 393.214 26.8511z"/>
<path style="fill:#b6d3e7; stroke:none;" d="M396 26L397 27L396 26z"/>
<path style="fill:#68c5ff; stroke:none;" d="M397 26L398 27L397 26z"/>
<path style="fill:#b6d3e7; stroke:none;" d="M203 27L204 28L203 27M353 27L354 28L353 27M360 27L361 28L360 27z"/>
<path style="fill:#68c5ff; stroke:none;" d="M379 27L380 28L379 27M398 27L399 28L398 27z"/>
<path style="fill:#b6d3e7; stroke:none;" d="M410 27L411 28L410 27z"/>
<path style="fill:#68c5ff; stroke:none;" d="M352.333 28.6667L352.667 29.3333L352.333 28.6667M361 28L362 29L361 28M371 28L372 29L371 28z"/>
<path style="fill:#b6d3e7; stroke:none;" d="M390 28L391 29L390 28M398 28L399 29L398 28z"/>
<path style="fill:#68c5ff; stroke:none;" d="M410 28L410 41L405 41L405 42C412.133 41.4442 412.374 33.657 410 28z"/>
<path style="fill:#b6d3e7; stroke:none;" d="M361 29L361 32L362 32L361 29M371 29L371 32L372 32L371 29z"/>
<path style="fill:#68c5ff; stroke:none;" d="M380 29L380 32L381 32L380 29z"/>
<path style="fill:#b6d3e7; stroke:none;" d="M352 30L353 31L352 30z"/>
<path style="fill:#68c5ff; stroke:none;" d="M399 30L400 31L399 30M352 31L353 32L352 31M361 32L362 33L361 32M371 32L372 33L371 32z"/>
<path style="fill:#b6d3e7; stroke:none;" d="M390 32L391 33L390 32M398 32L399 33L398 32z"/>
<path style="fill:#68c5ff; stroke:none;" d="M353 33L354 34L353 33z"/>
<path style="fill:#b6d3e7; stroke:none;" d="M360 33L361 34L360 33M372 33L373 34L372 33z"/>
<path style="fill:#68c5ff; stroke:none;" d="M379 33L380 34L379 33M398 33L399 34L398 33M354 34L355 35L354 34z"/>
<path style="fill:#b6d3e7; stroke:none;" d="M355 34L356 35L355 34M358 34L359 35L358 34z"/>
<path style="fill:#68c5ff; stroke:none;" d="M359 34L360 35L359 34M373 34L374 35L373 34z"/>
<path style="fill:#b6d3e7; stroke:none;" d="M377 34L378 35L377 34z"/>
<path style="fill:#68c5ff; stroke:none;" d="M378 34L379 35L378 34z"/>
<path style="fill:#b6d3e7; stroke:none;" d="M392 34L393 35L392 34M396 34L397 35L396 34M203 41L203 126C196.752 123.762 189.468 128.237 188 119L174 119C172.378 129.199 162.882 122.175 157.345 128.19C152.146 133.838 159.083 142.398 149 144C146.977 154.898 152.167 154.433 155.269 162.874C157.313 168.434 152.918 172.068 160.005 176.378C163.543 178.53 167.271 175.915 170.853 177.627C174.125 179.19 174.133 183.188 178.059 183.852C185.616 185.13 185.812 181.123 191.144 177.911C193.421 176.539 203.269 175.584 206 175.793C252.444 179.35 300.025 177 347 177L387 177C392.324 177 400.116 178.402 404.956 175.821C409.604 173.342 409.958 168.684 410 164L440 164L440 163L411 163L410 42L406 42L406 133C406 142.451 409.497 160.828 403.991 168.867C397.967 177.661 370.634 173 361 173L249 173C239.858 173 216.947 177.104 210.434 169.772C204.529 163.125 208 144.459 208 136L208 42L405 42L386 41L345 41L203 41M410 41L411 42L410 41z"/>
<path style="fill:#f7fafc; stroke:none;" d="M208 42L208 135C208 143.562 204.435 162.748 209.742 169.772C215.287 177.109 239.535 173 248 173L362 173L392 173C396.115 172.993 401.217 173.418 403.991 169.721C409.491 162.392 406 143.842 406 135L406 42L208 42z"/>
<path style="fill:#b6d3e7; stroke:none;" d="M216 49L216 53L281 53L281 49L216 49M358 53L359 54L358 53z"/>
<path style="fill:#414f5f; stroke:none;" d="M348 58L347 58C341.622 63.8736 346.185 73.5484 337 75L337 84C346.185 85.4516 341.622 95.1264 347 101L348 101C355.956 96.1176 358.53 105.97 367 106C369.773 95.4953 376.637 103.583 381.627 97.8079C386.132 92.5951 378.313 84.8254 389 84L389 75C378.962 73.4137 386.05 66.3093 381.627 61.1921C376.636 55.4172 369.773 63.5047 367 53C358.53 53.03 355.956 62.8824 348 58z"/>
<path style="fill:#b6d3e7; stroke:none;" d="M367.333 53.6667L367.667 54.3333L367.333 53.6667z"/>
<path style="fill:#31acff; stroke:none;" d="M358 54L359 55L358 54z"/>
<path style="fill:#68c5ff; stroke:none;" d="M367 55L368 56L367 55M411 56L411 163C423.75 163 438.851 165.228 451 160.757C472.748 152.753 481.675 126.066 470.876 106C464.92 94.9341 453.656 94.0461 446.563 85.7222C443.397 82.006 442.657 76.1541 439.895 72C433.106 61.7877 422.718 57.5132 411 56z"/>
<path style="fill:#b6d3e7; stroke:none;" d="M414 56L414 57L417 57L414 56M419.667 57.3333L420.333 57.6667L419.667 57.3333M346 58L347 59L346 58M348 58L349 59L348 58M357 58L358 59L357 58M377 58L378 59L377 58M379 58L380 59L379 58M423 58L424 59L423 58M345 59L346 60L345 59z"/>
<path style="fill:#68c5ff; stroke:none;" d="M349 59L350 60L349 59z"/>
<path style="fill:#b6d3e7; stroke:none;" d="M355 59L356 60L355 59z"/>
<path style="fill:#68c5ff; stroke:none;" d="M356 59L357 60L356 59z"/>
<path style="fill:#b6d3e7; stroke:none;" d="M369 59L370 60L369 59M380 59L381 60L380 59M425 59L426 60L425 59M344 60L345 61L344 60M353 60L354 61L353 60M372 60L373 61L372 60M374 60L375 61L374 60M381 60L382 61L381 60M427 60L428 61L427 60M343 61L344 62L343 61M382 61L383 62L382 61M216 62L216 66L281 66L281 62L216 62M342 62L343 63L342 62M383 62L384 63L383 62M430 62L431 63L430 62M341.333 63.6667L341.667 64.3333L341.333 63.6667M384.333 63.6667L384.667 64.3333L384.333 63.6667z"/>
<path style="fill:#31acff; stroke:none;" d="M342 65L343 66L342 65z"/>
<path style="fill:#b6d3e7; stroke:none;" d="M383 65L384 66L383 65M434 65L435 66L434 65z"/>
<path style="fill:#68c5ff; stroke:none;" d="M360 66L361 67L360 66z"/>
<path style="fill:#b6d3e7; stroke:none;" d="M361 66L361 67L365 67L361 66z"/>
<path style="fill:#68c5ff; stroke:none;" d="M365 66L366 67L365 66z"/>
<path style="fill:#31acff; stroke:none;" d="M382 66L383 67L382 66z"/>
<path style="fill:#b6d3e7; stroke:none;" d="M435 66L436 67L435 66M343 67L344 68L343 67M357 67L358 68L357 67z"/>
<path style="fill:#f7fafc; stroke:none;" d="M358.001 67.7423C342.417 73.7334 352.73 97.1706 367.996 91.2577C383.297 85.3313 373.29 61.8644 358.001 67.7423z"/>
<path style="fill:#68c5ff; stroke:none;" d="M368 67L369 68L368 67z"/>
<path style="fill:#b6d3e7; stroke:none;" d="M436 67L437 68L436 67M344 68L345 69L344 68z"/>
<path style="fill:#68c5ff; stroke:none;" d="M355 68L356 69L355 68M370 68L371 69L370 68z"/>
<path style="fill:#b6d3e7; stroke:none;" d="M381.333 68.6667L381.667 69.3333L381.333 68.6667M437 68L438 69L437 68z"/>
<path style="fill:#68c5ff; stroke:none;" d="M344 69L345 70L344 69z"/>
<path style="fill:#b6d3e7; stroke:none;" d="M354 69L355 70L354 69M371 69L372 70L371 69M353 70L354 71L353 70M372 70L373 71L372 70z"/>
<path style="fill:#68c5ff; stroke:none;" d="M343 71L344 72L343 71z"/>
<path style="fill:#b6d3e7; stroke:none;" d="M352 71L353 72L352 71z"/>
<path style="fill:#68c5ff; stroke:none;" d="M373 71L374 72L373 71z"/>
<path style="fill:#b6d3e7; stroke:none;" d="M382 71L383 72L382 71M439 71L440 72L439 71M342 73L343 74L342 73M374 73L375 74L374 73M216 74L216 79L281 79L281 74L216 74M339.667 74.3333L340.333 74.6667L339.667 74.3333z"/>
<path style="fill:#68c5ff; stroke:none;" d="M341 74L342 75L341 74M384 74L385 75L384 74z"/>
<path style="fill:#b6d3e7; stroke:none;" d="M385.667 74.3333L386.333 74.6667L385.667 74.3333M441 74L442 75L441 74M336 75L336 84L337 84L336 75M350 75L351 76L350 75M375.333 75.6667L375.667 76.3333L375.333 75.6667M389 75L389 84L390 84L389 75M442 76L443 77L442 76M443 78L444 79L443 78M444 81L445 82L444 81M375 82L376 83L375 82M350 83L351 84L350 83z"/>
<path style="fill:#68c5ff; stroke:none;" d="M375 83L376 84L375 83z"/>
<path style="fill:#b6d3e7; stroke:none;" d="M338 84L338 85L341 85L338 84z"/>
<path style="fill:#68c5ff; stroke:none;" d="M341 84L342 85L341 84z"/>
<path style="fill:#31acff; stroke:none;" d="M383 84L384 85L383 84z"/>
<path style="fill:#68c5ff; stroke:none;" d="M384 84L385 85L384 84z"/>
<path style="fill:#b6d3e7; stroke:none;" d="M385.667 84.3333L386.333 84.6667L385.667 84.3333M445.333 84.6667L445.667 85.3333L445.333 84.6667M342 85L343 86L342 85M351 85L352 86L351 85M374 85L375 86L374 85z"/>
<path style="fill:#31acff; stroke:none;" d="M382 86L383 87L382 86z"/>
<path style="fill:#b6d3e7; stroke:none;" d="M216 87L216 92L267 92L267 87L216 87z"/>
<path style="fill:#68c5ff; stroke:none;" d="M343 87L344 88L343 87z"/>
<path style="fill:#b6d3e7; stroke:none;" d="M352 87L353 88L352 87z"/>
<path style="fill:#68c5ff; stroke:none;" d="M373 87L374 88L373 87z"/>
<path style="fill:#b6d3e7; stroke:none;" d="M382 87L383 88L382 87M447 87L448 88L447 87M343 88L344 89L343 88M353 88L354 89L353 88M372 88L373 89L372 88M450 88L451 89L450 88z"/>
<path style="fill:#68c5ff; stroke:none;" d="M344 89L345 90L344 89z"/>
<path style="fill:#b6d3e7; stroke:none;" d="M354 89L355 90L354 89M371 89L372 90L371 89M381.333 89.6667L381.667 90.3333L381.333 89.6667M300.333 90.6667L300.667 91.3333L300.333 90.6667z"/>
<path style="fill:#414f5f; stroke:none;" d="M301 90L300 99C293.493 99.9703 279.148 95.3616 278.032 105C277.477 109.793 279.799 114.534 279 120L270 121L270 133C286.238 136.209 272.83 146.39 281.062 153.836C288.724 160.766 297.854 148.079 301 164L313 164C315.253 147.713 326.711 160.881 333.833 152.938C337.337 149.03 334.017 139.645 335 134L344 133L344 121L335 120C333.803 113.166 338.341 100.728 329 98.4576C324.916 97.4648 319.099 99.8984 314 99L313 90L301 90z"/>
<path style="fill:#b6d3e7; stroke:none;" d="M344 90L345 91L344 90z"/>
<path style="fill:#68c5ff; stroke:none;" d="M355 90L356 91L355 90z"/>
<path style="fill:#b6d3e7; stroke:none;" d="M313.333 91.6667L313.667 92.3333L313.333 91.6667M357 91L358 92L357 91M368 91L369 92L368 91M456 91L457 92L456 91M195 92L195 93L200 93L195 92z"/>
<path style="fill:#68c5ff; stroke:none;" d="M300 92L301 93L300 92M360 92L361 93L360 92z"/>
<path style="fill:#b6d3e7; stroke:none;" d="M361 92L361 93L365 93L361 92z"/>
<path style="fill:#68c5ff; stroke:none;" d="M365 92L366 93L365 92M382 92L383 93L382 92z"/>
<path style="fill:#b6d3e7; stroke:none;" d="M458 92L459 93L458 92M154 93L154 94L160 94L154 93M189.667 93.3333L190.333 93.6667L189.667 93.3333z"/>
<path style="fill:#68c5ff; stroke:none;" d="M260 178C245.408 178 230.566 178.797 216 177.957C212.198 177.738 208.655 174.898 205 175.082C202.02 175.231 193.708 176.004 191.144 177.336C187.248 179.361 187.057 183.584 181.995 183.937C175.184 184.412 175.845 179.249 170.853 177.167C167.145 175.62 163.52 178.082 160.005 175.628C153.6 171.156 157.718 167.602 155.41 162.108C151.972 153.92 147.669 154.537 149 144C159.38 143.194 152.631 133.684 158.194 128.204C163.698 122.782 173.195 129.356 174 119L188 119C188.716 128.213 196.485 124.811 203 126L203 93C193.811 93 185.451 97.7521 177 97.8928C167.314 98.054 159.462 92.6586 149 94.6188C128.929 98.3795 127.205 112.445 118.012 126.79C115.401 130.866 109.753 133.039 106.3 136.439C99.5233 143.111 95.6863 152.519 95.4552 162C95.1092 176.199 102.923 190.074 116 196.099C128.07 201.659 142.088 200 155 200L208 200C228.779 200 249.743 199.586 260 178M313.333 93.6667L313.667 94.3333L313.333 93.6667M342 93L343 94L342 93z"/>
<path style="fill:#b6d3e7; stroke:none;" d="M383 93L384 94L383 93M148.667 94.3333L149.333 94.6667L148.667 94.3333M165 94L166 95L165 94M186 94L187 95L186 94M341.333 94.6667L341.667 95.3333L341.333 94.6667M384 94L385 95L384 94M144 95L145 96L144 95M168.667 95.3333L169.333 95.6667L168.667 95.3333M462 95L463 96L462 95M142 96L143 97L142 96M171 96L172 97L171 96M181 96L182 97L181 96M342 96L343 97L342 96M463 96L464 97L463 96M286 97L287 98L286 97M299 97L298 99L299 97M327 97L328 98L327 97M329 97L330 98L329 97M343 97L344 98L343 97M464 97L465 98L464 97M178 98L179 99L178 98z"/>
<path style="fill:#68c5ff; stroke:none;" d="M287 98L288 99L287 98M299 98L300 99L299 98z"/>
<path style="fill:#b6d3e7; stroke:none;" d="M314 98L315 99L314 98M330 98L331 99L330 98M344 98L345 99L344 98M353 98L354 99L353 98M372 98L373 99L372 98M374 98L375 99L374 98M465 98L466 99L465 98M136 99L137 100L136 99M295 99L296 100L295 99z"/>
<path style="fill:#68c5ff; stroke:none;" d="M296 99L297 100L296 99z"/>
<path style="fill:#b6d3e7; stroke:none;" d="M317 99L318 100L317 99M324 99L325 100L324 99M331 99L332 100L331 99M345 99L346 100L345 99z"/>
<path style="fill:#68c5ff; stroke:none;" d="M349 99L350 100L349 99z"/>
<path style="fill:#b6d3e7; stroke:none;" d="M355 99L356 100L355 99z"/>
<path style="fill:#68c5ff; stroke:none;" d="M356 99L357 100L356 99z"/>
<path style="fill:#b6d3e7; stroke:none;" d="M369 99L370 100L369 99M466 99L467 100L466 99M216 100L216 105L267 105L267 100L216 100M290 100L291 101L290 100M293 100L294 101L293 100z"/>
<path style="fill:#68c5ff; stroke:none;" d="M319 100L320 101L319 100z"/>
<path style="fill:#b6d3e7; stroke:none;" d="M323 100L324 101L323 100M332 100L333 101L332 100M346 100L347 101L346 100M348 100L349 101L348 100M357 100L358 101L357 100M377 100L378 101L377 100M133 101L134 102L133 101z"/>
<path style="fill:#68c5ff; stroke:none;" d="M291 101L292 102L291 101M321 101L322 102L321 101z"/>
<path style="fill:#b6d3e7; stroke:none;" d="M333 101L334 102L333 101M132 102L133 103L132 102M334 102L335 103L334 102M335 103L336 104L335 103z"/>
<path style="fill:#68c5ff; stroke:none;" d="M367 103L368 104L367 103z"/>
<path style="fill:#b6d3e7; stroke:none;" d="M469 103L470 104L469 103M336 104L337 105L336 104z"/>
<path style="fill:#31acff; stroke:none;" d="M358 104L359 105L358 104z"/>
<path style="fill:#b6d3e7; stroke:none;" d="M367.333 104.667L367.667 105.333L367.333 104.667M276 105L277 106L276 105M358 105L359 106L358 105M470 105L471 106L470 105z"/>
<path style="fill:#68c5ff; stroke:none;" d="M277 106L278 107L277 106z"/>
<path style="fill:#b6d3e7; stroke:none;" d="M336 106L337 107L336 106M126 108L127 109L126 108M278 108L279 109L278 108z"/>
<path style="fill:#68c5ff; stroke:none;" d="M305 108L305 109L308 109L305 108z"/>
<path style="fill:#b6d3e7; stroke:none;" d="M125 109L126 110L125 109M279 109L280 110L279 109M301 109L302 110L301 109z"/>
<path style="fill:#f7fafc; stroke:none;" d="M302 109.638C278.792 116.337 290.087 151.38 313 144.196C334.73 137.383 323.609 103.401 302 109.638z"/>
<path style="fill:#b6d3e7; stroke:none;" d="M311.667 109.333L312.333 109.667L311.667 109.333M334 109L335 110L334 109M472 109L473 110L472 109z"/>
<path style="fill:#68c5ff; stroke:none;" d="M280 110L281 111L280 110M298 110L299 111L298 110z"/>
<path style="fill:#b6d3e7; stroke:none;" d="M299 110L300 111L299 110M314 110L315 111L314 110z"/>
<path style="fill:#68c5ff; stroke:none;" d="M315 110L316 111L315 110z"/>
<path style="fill:#b6d3e7; stroke:none;" d="M333 110L334 111L333 110M124 111L125 112L124 111M297 111L298 112L297 111M316 111L317 112L316 111M473 111L474 112L473 111M123 112L124 113L123 112z"/>
<path style="fill:#68c5ff; stroke:none;" d="M295 112L296 113L295 112z"/>
<path style="fill:#b6d3e7; stroke:none;" d="M332 112L333 113L332 112M280 113L281 114L280 113z"/>
<path style="fill:#68c5ff; stroke:none;" d="M294 113L295 114L294 113z"/>
<path style="fill:#b6d3e7; stroke:none;" d="M319 113L320 114L319 113M122 114L123 115L122 114z"/>
<path style="fill:#68c5ff; stroke:none;" d="M293 114L294 115L293 114z"/>
<path style="fill:#b6d3e7; stroke:none;" d="M320 114L321 115L320 114M333 114L334 115L333 114M474.333 114.667L474.667 115.333L474.333 114.667M279 115L280 116L279 115z"/>
<path style="fill:#68c5ff; stroke:none;" d="M292 115L293 116L292 115M321 115L322 116L321 115z"/>
<path style="fill:#b6d3e7; stroke:none;" d="M121 116L122 117L121 116z"/>
<path style="fill:#68c5ff; stroke:none;" d="M279 116L280 117L279 116z"/>
<path style="fill:#b6d3e7; stroke:none;" d="M334 116L335 117L334 116M322 117L323 118L322 117M417.228 118.029C410.82 121.895 414.749 136.261 422.891 131.957C430.514 127.928 425.706 112.913 417.228 118.029M428 117L428 119L432 119L432 133L434 133L434 117L428 117M440.394 118.029C433.741 122.288 438.934 136.299 446.772 131.806C453.804 127.773 448.568 112.795 440.394 118.029M452 117L455 119L455 133C459.717 129.942 458 122.074 458 117L452 117M278 118L279 119L278 118z"/>
<path style="fill:#68c5ff; stroke:none;" d="M290 118L291 119L290 118z"/>
<path style="fill:#b6d3e7; stroke:none;" d="M120 119L121 120L120 119z"/>
<path style="fill:#68c5ff; stroke:none;" d="M278 119L279 120L278 119z"/>
<path style="fill:#b6d3e7; stroke:none;" d="M323 119L324 120L323 119M335 119L336 120L335 119z"/>
<path style="fill:#68c5ff; stroke:none;" d="M418.418 120.047C414.495 122.627 416.394 132.732 421.698 129.863C425.966 127.555 423.789 116.516 418.418 120.047M442.313 120.086C438.134 122.449 440.296 132.841 445.571 129.762C449.769 127.313 447.652 117.068 442.313 120.086z"/>
<path style="fill:#b6d3e7; stroke:none;" d="M475 119L475 123L476 123L475 119M271.667 120.333L272.333 120.667L271.667 120.333z"/>
<path style="fill:#68c5ff; stroke:none;" d="M273.667 120.333L274.333 120.667L273.667 120.333M289 120L290 121L289 120M339 120L340 121L339 120z"/>
<path style="fill:#b6d3e7; stroke:none;" d="M340 120L340 121L343 121L340 120M289 121L290 122L289 121M324.333 121.667L324.667 122.333L324.333 121.667M119 122L120 123L119 122z"/>
<path style="fill:#68c5ff; stroke:none;" d="M288 125L288 130L289 130L288 125M325 125L325 129L326 129L325 125z"/>
<path style="fill:#b6d3e7; stroke:none;" d="M118.333 126.667L118.667 127.333L118.333 126.667M475 127L475 130L476 130L475 127M112 131L113 132L112 131M289 132L290 133L289 132M324 132L325 133L324 132M109 133L110 134L109 133M270.667 133.333L271.333 133.667L270.667 133.333z"/>
<path style="fill:#68c5ff; stroke:none;" d="M272 133L273 134L272 133M289 133L290 134L289 133M341 133L342 134L341 133z"/>
<path style="fill:#b6d3e7; stroke:none;" d="M342.667 133.333L343.333 133.667L342.667 133.333M108 134L109 135L108 134M276.667 134.333L277.333 134.667L276.667 134.333z"/>
<path style="fill:#68c5ff; stroke:none;" d="M335 134L336 135L335 134z"/>
<path style="fill:#b6d3e7; stroke:none;" d="M336 134L337 135L336 134M474 134L475 135L474 134M107 135L108 136L107 135M278 135L279 136L278 135z"/>
<path style="fill:#68c5ff; stroke:none;" d="M290 135L291 136L290 135M323 135L324 136L323 135z"/>
<path style="fill:#b6d3e7; stroke:none;" d="M335 135L336 136L335 135z"/>
<path style="fill:#68c5ff; stroke:none;" d="M176 136.573C157.013 142.02 166.269 171.328 185 166.442C205.225 161.167 196.027 130.827 176 136.573M291 137L292 138L291 137M334 137L335 138L334 137z"/>
<path style="fill:#b6d3e7; stroke:none;" d="M473 137L474 138L473 137M104 138L105 139L104 138M279 138L280 139L279 138M292 138L293 139L292 138M321 138L322 139L321 138M103 139L104 140L103 139M293 139L294 140L293 139M320 139L321 140L320 139z"/>
<path style="fill:#68c5ff; stroke:none;" d="M333 139L334 140L333 139z"/>
<path style="fill:#b6d3e7; stroke:none;" d="M280 140L281 141L280 140M294 140L295 141L294 140M319 140L320 141L319 140M472 140L473 141L472 140M295 141L296 142L295 141M318 141L319 142L318 141z"/>
<path style="fill:#68c5ff; stroke:none;" d="M332.333 141.667L332.667 142.333L332.333 141.667z"/>
<path style="fill:#b6d3e7; stroke:none;" d="M101 142L102 143L101 142z"/>
<path style="fill:#68c5ff; stroke:none;" d="M296 142L297 143L296 142z"/>
<path style="fill:#b6d3e7; stroke:none;" d="M471 142L472 143L471 142M100 143L101 144L100 143z"/>
<path style="fill:#68c5ff; stroke:none;" d="M280 143L281 144L280 143z"/>
<path style="fill:#b6d3e7; stroke:none;" d="M298 143L299 144L298 143M315 143L316 144L315 143M333 143L334 144L333 143M279 144L280 145L279 144z"/>
<path style="fill:#68c5ff; stroke:none;" d="M300 144L301 145L300 144z"/>
<path style="fill:#b6d3e7; stroke:none;" d="M301 144L302 145L301 144M312 144L313 145L312 144z"/>
<path style="fill:#68c5ff; stroke:none;" d="M313 144L314 145L313 144z"/>
<path style="fill:#b6d3e7; stroke:none;" d="M470 144L471 145L470 144M99 145L100 146L99 145z"/>
<path style="fill:#68c5ff; stroke:none;" d="M304 145L304 146L307 146L304 145z"/>
<path style="fill:#b6d3e7; stroke:none;" d="M307.667 145.333L308.333 145.667L307.667 145.333z"/>
<path style="fill:#68c5ff; stroke:none;" d="M309 145L310 146L309 145z"/>
<path style="fill:#b6d3e7; stroke:none;" d="M469 145L470 146L469 145z"/>
<path style="fill:#68c5ff; stroke:none;" d="M335 146L336 147L335 146z"/>
<path style="fill:#b6d3e7; stroke:none;" d="M98 147L99 148L98 147z"/>
<path style="fill:#68c5ff; stroke:none;" d="M277 147L278 148L277 147z"/>
<path style="fill:#b6d3e7; stroke:none;" d="M336 147L337 148L336 147M468 147L469 148L468 147M276 148L277 149L276 148M467 148L468 149L467 148M97 150L98 151L97 150M96 153L97 154L96 153z"/>
<path style="fill:#68c5ff; stroke:none;" d="M290 153L291 154L290 153z"/>
<path style="fill:#b6d3e7; stroke:none;" d="M293 153L294 154L293 153M320 153L321 154L320 153z"/>
<path style="fill:#68c5ff; stroke:none;" d="M323 153L324 154L323 153M377 153L378 154L377 153z"/>
<path style="fill:#31acff; stroke:none;" d="M378.094 153.931C372.336 155.578 375.423 164.184 380.856 162.338C385.94 160.61 383.359 152.426 378.094 153.931z"/>
<path style="fill:#68c5ff; stroke:none;" d="M380 153L381 154L380 153z"/>
<path style="fill:#b6d3e7; stroke:none;" d="M381 153L382 154L381 153M218.667 154.333L219.333 154.667L218.667 154.333M233 154L233 155L236 155L233 154M249 154L249 155L252 155L249 154M265.667 154.333L266.333 154.667L265.667 154.333M289 154L290 155L289 154M295 154L296 155L295 154M318 154L319 155L318 154M324 154L325 155L324 154M346 154L346 155L349 155L346 154M362 154L362 155L365 155L362 154M375 154L376 155L375 154M394.667 154.333L395.333 154.667L394.667 154.333z"/>
<path style="fill:#68c5ff; stroke:none;" d="M216 155L217 156L216 155z"/>
<path style="fill:#31acff; stroke:none;" d="M217.458 156.083C214.852 157.759 216.749 162.14 219.722 160.745C222.994 159.209 220.681 154.009 217.458 156.083z"/>
<path style="fill:#b6d3e7; stroke:none;" d="M221 155L222 156L221 155z"/>
<path style="fill:#68c5ff; stroke:none;" d="M232 155L231 157L232 155z"/>
<path style="fill:#31acff; stroke:none;" d="M233.293 156.083C230.443 157.85 232.661 161.992 235.686 160.593C238.933 159.092 236.465 154.116 233.293 156.083M248.618 156.086C245.691 158.174 249.652 162.827 252.343 160.204C254.685 157.921 251.102 154.314 248.618 156.086z"/>
<path style="fill:#68c5ff; stroke:none;" d="M252 155L253 156L252 155z"/>
<path style="fill:#b6d3e7; stroke:none;" d="M263 155L264 156L263 155z"/>
<path style="fill:#31acff; stroke:none;" d="M264.607 156.086C262.118 157.906 264.803 162.164 267.542 160.674C270.701 158.953 267.439 154.016 264.607 156.086z"/>
<path style="fill:#68c5ff; stroke:none;" d="M268 155L269 156L268 155z"/>
<path style="fill:#b6d3e7; stroke:none;" d="M298 155L299 156L298 155M315 155L316 156L315 155z"/>
<path style="fill:#68c5ff; stroke:none;" d="M345 155L344 157L345 155z"/>
<path style="fill:#31acff; stroke:none;" d="M346.343 156.083C343.615 157.775 345.781 162.117 348.721 160.745C352.051 159.19 349.648 154.032 346.343 156.083z"/>
<path style="fill:#68c5ff; stroke:none;" d="M361 155L360 157L361 155z"/>
<path style="fill:#31acff; stroke:none;" d="M362.293 156.086C359.469 157.868 361.605 162.22 364.686 160.674C367.895 159.063 365.472 154.08 362.293 156.086z"/>
<path style="fill:#68c5ff; stroke:none;" d="M383 155L384 156L383 155z"/>
<path style="fill:#b6d3e7; stroke:none;" d="M392 155L393 156L392 155z"/>
<path style="fill:#31acff; stroke:none;" d="M393.589 156.083C390.895 157.971 393.49 162.67 396.411 160.713C399.135 158.888 396.462 154.068 393.589 156.083z"/>
<path style="fill:#68c5ff; stroke:none;" d="M397 155L398 156L397 155z"/>
<path style="fill:#b6d3e7; stroke:none;" d="M460 155L461 156L460 155M215 156L216 157L215 156z"/>
<path style="fill:#68c5ff; stroke:none;" d="M237 156L238 157L237 156M253 156L254 157L253 156z"/>
<path style="fill:#b6d3e7; stroke:none;" d="M269 156L270 157L269 156z"/>
<path style="fill:#68c5ff; stroke:none;" d="M286 156L287 157L286 156z"/>
<path style="fill:#b6d3e7; stroke:none;" d="M299 156L300 157L299 156M314 156L315 157L314 156z"/>
<path style="fill:#68c5ff; stroke:none;" d="M327 156L328 157L327 156M366 156L367 157L366 156M374 156L375 157L374 156z"/>
<path style="fill:#b6d3e7; stroke:none;" d="M398 156L399 157L398 156z"/>
<path style="fill:#68c5ff; stroke:none;" d="M215 157L216 158L215 157z"/>
<path style="fill:#b6d3e7; stroke:none;" d="M222 157L222 160L223 160L222 157M238.333 157.667L238.667 158.333L238.333 157.667M246.333 157.667L246.667 158.333L246.333 157.667M262 157L262 160L263 160L262 157z"/>
<path style="fill:#68c5ff; stroke:none;" d="M269 157L270 158L269 157z"/>
<path style="fill:#b6d3e7; stroke:none;" d="M285 157L286 158L285 157M328 157L329 158L328 157M351.333 157.667L351.667 158.333L351.333 157.667M384 157L384 160L385 160L384 157z"/>
<path style="fill:#68c5ff; stroke:none;" d="M391.333 157.667L391.667 158.333L391.333 157.667M398 157L398 160L399 160L398 157z"/>
<path style="fill:#b6d3e7; stroke:none;" d="M457 157L458 158L457 157M95 158L95 161L96 161L95 158z"/>
<path style="fill:#68c5ff; stroke:none;" d="M215 159L216 160L215 159M269 159L270 160L269 159M344 159L345 160L344 159M374 159L375 160L374 159z"/>
<path style="fill:#b6d3e7; stroke:none;" d="M391 159L392 160L391 159z"/>
<path style="fill:#68c5ff; stroke:none;" d="M221 160L222 161L221 160z"/>
<path style="fill:#b6d3e7; stroke:none;" d="M231 160L232 161L231 160z"/>
<path style="fill:#68c5ff; stroke:none;" d="M237 160L238 161L237 160z"/>
<path style="fill:#b6d3e7; stroke:none;" d="M247 160L248 161L247 160M253 160L254 161L253 160z"/>
<path style="fill:#68c5ff; stroke:none;" d="M263 160L264 161L263 160M313 160L314 161L313 160z"/>
<path style="fill:#b6d3e7; stroke:none;" d="M344 160L345 161L344 160z"/>
<path style="fill:#68c5ff; stroke:none;" d="M350 160L351 161L350 160z"/>
<path style="fill:#b6d3e7; stroke:none;" d="M360 160L361 161L360 160M366 160L367 161L366 160M374 160L375 161L374 160M451 160L452 161L451 160z"/>
<path style="fill:#68c5ff; stroke:none;" d="M217 161L218 162L217 161M220 161L221 162L220 161z"/>
<path style="fill:#b6d3e7; stroke:none;" d="M232 161L233 162L232 161z"/>
<path style="fill:#68c5ff; stroke:none;" d="M233 161L234 162L233 161M235 161L236 162L235 161z"/>
<path style="fill:#b6d3e7; stroke:none;" d="M236 161L237 162L236 161M248 161L249 162L248 161z"/>
<path style="fill:#68c5ff; stroke:none;" d="M251 161L252 162L251 161z"/>
<path style="fill:#b6d3e7; stroke:none;" d="M252 161L253 162L252 161z"/>
<path style="fill:#68c5ff; stroke:none;" d="M264 161L265 162L264 161M267 161L268 162L267 161M300 161L301 162L300 161z"/>
<path style="fill:#b6d3e7; stroke:none;" d="M313 161L313 164L314 164L313 161z"/>
<path style="fill:#68c5ff; stroke:none;" d="M346 161L347 162L346 161z"/>
<path style="fill:#b6d3e7; stroke:none;" d="M349 161L350 162L349 161M361 161L362 162L361 161z"/>
<path style="fill:#68c5ff; stroke:none;" d="M364 161L365 162L364 161z"/>
<path style="fill:#b6d3e7; stroke:none;" d="M365 161L366 162L365 161z"/>
<path style="fill:#68c5ff; stroke:none;" d="M375 161L376 162L375 161z"/>
<path style="fill:#b6d3e7; stroke:none;" d="M383 161L384 162L383 161z"/>
<path style="fill:#68c5ff; stroke:none;" d="M393 161L394 162L393 161M396 161L397 162L396 161z"/>
<path style="fill:#b6d3e7; stroke:none;" d="M449 161L450 162L449 161M300.333 162.667L300.667 163.333L300.333 162.667z"/>
<path style="fill:#68c5ff; stroke:none;" d="M376 162L377 163L376 162z"/>
<path style="fill:#b6d3e7; stroke:none;" d="M382 162L383 163L382 162M444.667 162.333L445.333 162.667L444.667 162.333M378 163L378 164L381 164L378 163M95 164L95 168L96 168L95 164M96 172L97 173L96 172M97 175L98 176L97 175M259 179L260 180L259 179z"/>
<path style="fill:#414f5f; stroke:none;" d="M217 181L217 184L223 184L223 181L217 181z"/>
<path style="fill:#b6d3e7; stroke:none;" d="M258 181L259 182L258 181z"/>
<path style="fill:#31acff; stroke:none;" d="M304 181L304 182L310 182L304 181M391 181L391 182L397 182L391 181z"/>
<path style="fill:#b6d3e7; stroke:none;" d="M257 182L258 183L257 182z"/>
<path style="fill:#414f5f; stroke:none;" d="M304 182L304 184L310 184L310 182L304 182M391 182L391 184L397 184L397 182L391 182z"/>
<path style="fill:#b6d3e7; stroke:none;" d="M101 183L102 184L101 183z"/>
<path style="fill:#31acff; stroke:none;" d="M217 184L217 185L223 185L217 184z"/>
<path style="fill:#68c5ff; stroke:none;" d="M304 184L304 185L310 185L304 184M391 184L391 185L397 185L391 184z"/>
<path style="fill:#b6d3e7; stroke:none;" d="M255 185L256 186L255 185M254 186L255 187L254 186M104 187L105 188L104 187M105 188L106 189L105 188z"/>
<path style="fill:#414f5f; stroke:none;" d="M217 188L217 191L223 191L223 188L217 188M304 188L304 191L310 191L310 188L304 188M391 188L391 191L397 191L397 188L391 188z"/>
<path style="fill:#b6d3e7; stroke:none;" d="M106 189L107 190L106 189M107 190L108 191L107 190M250 190L251 191L250 190z"/>
<path style="fill:#31acff; stroke:none;" d="M217 191L217 192L223 192L217 191z"/>
<path style="fill:#b6d3e7; stroke:none;" d="M249 191L250 192L249 191z"/>
<path style="fill:#68c5ff; stroke:none;" d="M304 191L304 192L310 192L304 191M391 191L391 192L397 192L391 191z"/>
<path style="fill:#b6d3e7; stroke:none;" d="M111 193L112 194L111 193M246 193L247 194L246 193M114 195L115 196L114 195z"/>
<path style="fill:#414f5f; stroke:none;" d="M217 195L217 198L223 198L223 195L217 195z"/>
<path style="fill:#b6d3e7; stroke:none;" d="M243 195L244 196L243 195z"/>
<path style="fill:#414f5f; stroke:none;" d="M304 195L304 198L310 198L310 195L304 195M391 195L391 198L397 198L397 195L391 195z"/>
<path style="fill:#b6d3e7; stroke:none;" d="M116 196L117 197L116 196M241 196L242 197L241 196M119 197L120 198L119 197M121.667 198.333L122.333 198.667L121.667 198.333z"/>
<path style="fill:#31acff; stroke:none;" d="M217 198L217 199L223 199L217 198z"/>
<path style="fill:#b6d3e7; stroke:none;" d="M235.667 198.333L236.333 198.667L235.667 198.333z"/>
<path style="fill:#68c5ff; stroke:none;" d="M304 198L304 199L310 199L304 198M391 198L391 199L397 199L391 198z"/>
<path style="fill:#b6d3e7; stroke:none;" d="M126.667 199.333L127.333 199.667L126.667 199.333M230.667 199.333L231.333 199.667L230.667 199.333z"/>
<path style="fill:#414f5f; stroke:none;" d="M217 202L217 205L223 205L223 202L217 202M304 202L304 205L310 205L310 202L304 202M391 202L391 205L397 205L397 202L391 202z"/>
<path style="fill:#b6d3e7; stroke:none;" d="M217 205L217 206L223 206L217 205M304 205L304 206L310 206L304 205M391 205L391 206L397 206L391 205M217 208L217 209L223 209L217 208M304 208L304 209L310 209L304 208M391 208L391 209L397 209L391 208z"/>
<path style="fill:#414f5f; stroke:none;" d="M217 209L217 212L223 212L223 209L217 209M304 209L304 212L310 212L310 209L304 209M391 209L391 212L397 212L397 209L391 209z"/>
<path style="fill:#b6d3e7; stroke:none;" d="M217 212L217 213L223 213L217 212M304 212L304 213L310 213L304 212M391 212L391 213L397 213L391 212M217 215L217 216L223 216L217 215M304 215L304 216L310 216L304 215M391 215L391 216L397 216L391 215z"/>
<path style="fill:#414f5f; stroke:none;" d="M217 216L217 219L223 219L223 216L217 216M304 216L304 219L310 219L310 216L304 216M391 216L391 219L397 219L397 216L391 216z"/>
<path style="fill:#b6d3e7; stroke:none;" d="M217 219L217 220L223 220L217 219M304 219L304 220L310 220L304 219M391 219L391 220L397 220L391 219M217 222L217 223L223 223L217 222M304 222L304 223L310 223L304 222M391 222L391 223L397 223L391 222z"/>
<path style="fill:#414f5f; stroke:none;" d="M217 223L217 226L223 226L223 223L217 223M304 223L304 226L310 226L310 223L304 223M391 223L391 226L397 226L397 223L391 223z"/>
<path style="fill:#b6d3e7; stroke:none;" d="M93 226L93 227L97 227L93 226z"/>
<path style="fill:#68c5ff; stroke:none;" d="M97 226L97 227L100 227L97 226z"/>
<path style="fill:#b6d3e7; stroke:none;" d="M100 226L100 227L104 227L100 226M136 226L136 227L139 227L136 226z"/>
<path style="fill:#68c5ff; stroke:none;" d="M139 226L139 227L144 227L139 226z"/>
<path style="fill:#b6d3e7; stroke:none;" d="M144 226L144 227L147 227L144 226M459 226L459 227L462 227L459 226z"/>
<path style="fill:#68c5ff; stroke:none;" d="M462 226L462 227L466 227L462 226z"/>
<path style="fill:#b6d3e7; stroke:none;" d="M466 226L466 227L470 227L466 226M502 226L502 227L505 227L502 226z"/>
<path style="fill:#68c5ff; stroke:none;" d="M505 226L505 227L510 227L505 226z"/>
<path style="fill:#b6d3e7; stroke:none;" d="M510 226L510 227L513 227L510 226M88.6667 227.333L89.3333 227.667L88.6667 227.333z"/>
<path style="fill:#68c5ff; stroke:none;" d="M90 227L91 228L90 227z"/>
<path style="fill:#31acff; stroke:none;" d="M104 341C104.006 332.449 105.455 327.113 115 327L115 324C98.8153 323.475 98.4712 288.4 115 288L115 286C102.139 285.689 103.999 274.882 104 265C104 260.192 103.175 253.956 108.109 251.179C113.218 248.303 122.307 250 128 250L177 250C170.075 233.48 153.453 225.298 136 227.174C130.687 227.745 126.129 230.988 121 231.644C116.452 232.227 111.442 228.617 107 227.669C97.2819 225.596 86.4568 227.247 78 232.468C66.364 239.653 66.9273 250.58 59.2724 259.582C52.4377 267.619 42.3583 269.817 36.4645 280C22.9527 303.346 37.3303 333.719 63 339.764C75.9667 342.817 90.7381 341 104 341z"/>
<path style="fill:#68c5ff; stroke:none;" d="M106 227L107 228L106 227z"/>
<path style="fill:#b6d3e7; stroke:none;" d="M107.667 227.333L108.333 227.667L107.667 227.333M131 227L132 228L131 227z"/>
<path style="fill:#68c5ff; stroke:none;" d="M132.667 227.333L133.333 227.667L132.667 227.333M149.667 227.333L150.333 227.667L149.667 227.333z"/>
<path style="fill:#b6d3e7; stroke:none;" d="M151 227L152 228L151 227M454.667 227.333L455.333 227.667L454.667 227.333z"/>
<path style="fill:#68c5ff; stroke:none;" d="M456 227L457 228L456 227z"/>
<path style="fill:#31acff; stroke:none;" d="M429 250L483 250C489.138 250 499.43 248.046 504.945 251.028C515.718 256.852 512.341 285.567 499 286L499 288C515.164 288.525 515.164 323.475 499 324L499 327C508.402 327.111 509.977 332.516 510 341C522.942 341 536.69 342.623 549 337.934C571.278 329.45 580.575 303.139 570.677 282C565.152 270.202 553.941 268.404 546.854 259.582C539.674 250.643 540.038 240.155 529 232.966C520.389 227.358 509.024 225.53 499 227.669C494.579 228.612 489.501 232.326 485 231.806C479.859 231.213 475.313 227.751 470 227.174C452.628 225.286 436.062 233.636 429 250z"/>
<path style="fill:#68c5ff; stroke:none;" d="M472.667 227.333L473.333 227.667L472.667 227.333z"/>
<path style="fill:#b6d3e7; stroke:none;" d="M474 227L475 228L474 227M497 227L498 228L497 227z"/>
<path style="fill:#68c5ff; stroke:none;" d="M498.667 227.333L499.333 227.667L498.667 227.333M515.667 227.333L516.333 227.667L515.667 227.333z"/>
<path style="fill:#b6d3e7; stroke:none;" d="M517 227L518 228L517 227M85 228L86 229L85 228z"/>
<path style="fill:#68c5ff; stroke:none;" d="M86 228L87 229L86 228M110 228L111 229L110 228z"/>
<path style="fill:#b6d3e7; stroke:none;" d="M111 228L112 229L111 228M128 228L129 229L128 228z"/>
<path style="fill:#68c5ff; stroke:none;" d="M129 228L130 229L129 228M153 228L154 229L153 228z"/>
<path style="fill:#b6d3e7; stroke:none;" d="M154 228L155 229L154 228M451 228L452 229L451 228z"/>
<path style="fill:#68c5ff; stroke:none;" d="M452 228L453 229L452 228M476 228L477 229L476 228z"/>
<path style="fill:#b6d3e7; stroke:none;" d="M477 228L478 229L477 228M494 228L495 229L494 228z"/>
<path style="fill:#68c5ff; stroke:none;" d="M495 228L496 229L495 228M519 228L520 229L519 228z"/>
<path style="fill:#b6d3e7; stroke:none;" d="M520 228L521 229L520 228M82.6667 229.333L83.3333 229.667L82.6667 229.333z"/>
<path style="fill:#68c5ff; stroke:none;" d="M113 229L114 230L113 229z"/>
<path style="fill:#b6d3e7; stroke:none;" d="M126 229L127 230L126 229z"/>
<path style="fill:#68c5ff; stroke:none;" d="M156 229L157 230L156 229z"/>
<path style="fill:#b6d3e7; stroke:none;" d="M157 229L158 230L157 229z"/>
<path style="fill:#68c5ff; stroke:none;" d="M217 229L217 230L223 230L217 229M304 229L304 230L310 230L304 229M391 229L391 230L397 230L391 229z"/>
<path style="fill:#b6d3e7; stroke:none;" d="M448 229L449 230L448 229z"/>
<path style="fill:#68c5ff; stroke:none;" d="M449 229L450 230L449 229M478.667 229.333L479.333 229.667L478.667 229.333z"/>
<path style="fill:#b6d3e7; stroke:none;" d="M491 229L492 230L491 229z"/>
<path style="fill:#68c5ff; stroke:none;" d="M492 229L493 230L492 229M522 229L523 230L522 229z"/>
<path style="fill:#b6d3e7; stroke:none;" d="M80 230L81 231L80 230z"/>
<path style="fill:#68c5ff; stroke:none;" d="M81 230L82 231L81 230M115 230L116 231L115 230M124 230L125 231L124 230M158 230L159 231L158 230z"/>
<path style="fill:#b6d3e7; stroke:none;" d="M159 230L160 231L159 230z"/>
<path style="fill:#414f5f; stroke:none;" d="M217 230L217 233L223 233L223 230L217 230M304 230L304 233L310 233L310 230L304 230M391 230L391 233L397 233L397 230L391 230z"/>
<path style="fill:#b6d3e7; stroke:none;" d="M446 230L447 231L446 230z"/>
<path style="fill:#68c5ff; stroke:none;" d="M447 230L448 231L447 230M481 230L482 231L481 230z"/>
<path style="fill:#b6d3e7; stroke:none;" d="M489 230L490 231L489 230z"/>
<path style="fill:#68c5ff; stroke:none;" d="M490 230L491 231L490 230M524 230L525 231L524 230M79 231L80 232L79 231M117 231L118 232L117 231z"/>
<path style="fill:#b6d3e7; stroke:none;" d="M122 231L123 232L122 231z"/>
<path style="fill:#68c5ff; stroke:none;" d="M160 231L161 232L160 231z"/>
<path style="fill:#b6d3e7; stroke:none;" d="M444 231L445 232L444 231z"/>
<path style="fill:#68c5ff; stroke:none;" d="M445 231L446 232L445 231M483 231L484 232L483 231M488 231L489 232L488 231M526 231L527 232L526 231z"/>
<path style="fill:#b6d3e7; stroke:none;" d="M77 232L78 233L77 232M119.667 232.333L120.333 232.667L119.667 232.333z"/>
<path style="fill:#68c5ff; stroke:none;" d="M162 232L163 233L162 232z"/>
<path style="fill:#b6d3e7; stroke:none;" d="M443 232L444 233L443 232z"/>
<path style="fill:#68c5ff; stroke:none;" d="M484 232L485 233L484 232z"/>
<path style="fill:#b6d3e7; stroke:none;" d="M485.667 232.333L486.333 232.667L485.667 232.333M528 232L529 233L528 232z"/>
<path style="fill:#68c5ff; stroke:none;" d="M76 233L77 234L76 233z"/>
<path style="fill:#b6d3e7; stroke:none;" d="M441 233L442 234L441 233z"/>
<path style="fill:#68c5ff; stroke:none;" d="M442 233L443 234L442 233z"/>
<path style="fill:#b6d3e7; stroke:none;" d="M74 234L75 235L74 234M165 234L166 235L165 234M440 234L441 235L440 234M531 234L532 235L531 234M73 235L74 236L73 235z"/>
<path style="fill:#68c5ff; stroke:none;" d="M166 235L167 236L166 235M439 235L440 236L439 235z"/>
<path style="fill:#b6d3e7; stroke:none;" d="M532 235L533 236L532 235z"/>
<path style="fill:#68c5ff; stroke:none;" d="M72 236L73 237L72 236M167 236L168 237L167 236M217 236L217 237L223 237L217 236M304 236L304 237L310 237L304 236M391 236L391 237L397 237L391 236M438 236L439 237L438 236M533 236L534 237L533 236M71 237L72 238L71 237z"/>
<path style="fill:#414f5f; stroke:none;" d="M217 237L217 240L223 240L223 237L217 237M304 237L304 240L310 240L310 237L304 237M391 237L391 240L397 240L397 237L391 237z"/>
<path style="fill:#68c5ff; stroke:none;" d="M437 237L438 238L437 237M534 237L535 238L534 237M70 238L71 239L70 238M436 238L437 239L436 238M535 238L536 239L535 238z"/>
<path style="fill:#b6d3e7; stroke:none;" d="M69 239L70 240L69 239z"/>
<path style="fill:#68c5ff; stroke:none;" d="M170 239L171 240L170 239M435 239L436 240L435 239M536 239L537 240L536 239z"/>
<path style="fill:#b6d3e7; stroke:none;" d="M68 240L69 241L68 240z"/>
<path style="fill:#68c5ff; stroke:none;" d="M171 240L172 241L171 240z"/>
<path style="fill:#b6d3e7; stroke:none;" d="M434 240L435 241L434 240M537 240L538 241L537 240M67 241L68 242L67 241M172 241L173 242L172 241M433 241L434 242L433 241M538 241L539 242L538 241z"/>
<path style="fill:#68c5ff; stroke:none;" d="M67 242L68 243L67 242z"/>
<path style="fill:#b6d3e7; stroke:none;" d="M173 242L174 243L173 242z"/>
<path style="fill:#68c5ff; stroke:none;" d="M66 243L67 244L66 243M217 243L217 244L223 244L217 243M304 243L304 244L310 244L304 243M391 243L391 244L397 244L391 243M432 243L433 244L432 243M539 243L540 244L539 243z"/>
<path style="fill:#b6d3e7; stroke:none;" d="M65 244L66 245L65 244z"/>
<path style="fill:#68c5ff; stroke:none;" d="M174 244L175 245L174 244z"/>
<path style="fill:#414f5f; stroke:none;" d="M217 244L217 246L223 246L223 244L217 244M304 244L304 246L310 246L310 244L304 244M391 244L391 246L397 246L397 244L391 244z"/>
<path style="fill:#b6d3e7; stroke:none;" d="M431 244L432 245L431 244M540 244L541 245L540 244z"/>
<path style="fill:#68c5ff; stroke:none;" d="M65 245L66 246L65 245M64 246L65 247L64 246M175 246L176 247L175 246z"/>
<path style="fill:#31acff; stroke:none;" d="M217 246L217 247L223 247L217 246M304 246L304 247L310 247L304 246M391 246L391 247L397 247L391 246z"/>
<path style="fill:#68c5ff; stroke:none;" d="M430 246L431 247L430 246z"/>
<path style="fill:#b6d3e7; stroke:none;" d="M541 246L542 247L541 246M176 247L177 248L176 247M429 247L430 248L429 247z"/>
<path style="fill:#68c5ff; stroke:none;" d="M63 248L64 249L63 248M176 248L177 249L176 248M429 248L430 249L429 248M542 248L543 249L542 248z"/>
<path style="fill:#b6d3e7; stroke:none;" d="M109 250L109 251L170 251L169 258L223 258L223 278L165 278C164.077 286.187 157.703 285 151 285L109 285L109 286L185 286C197.844 286 212.408 287.885 224.981 284.941C231.841 283.335 233.087 257.294 228.397 252.603C225.521 249.728 218.694 251 215 251C205.614 251 185.555 254.723 178 249C156.927 254.017 130.665 250 109 250M428 249L429 250L428 249M62 250L63 251L62 250z"/>
<path style="fill:#68c5ff; stroke:none;" d="M108 250L109 251L108 250z"/>
<path style="fill:#b6d3e7; stroke:none;" d="M287 250L287 251L294 251L287 250M321 250L321 251L328 251L321 250M429 250L429 251L448 251L447 258L502 258C502 262.754 503.698 271.597 500.972 275.682C499.081 278.516 494.946 277.994 492 278L467 278C459.007 278 443.355 274.2 443 285L393 285L393 289L442 289L441 296L502 296L502 316L437 316C436.072 328.163 402.66 323 393 323L393 327L394 327L394 324L469 324C479.601 324 493.802 326.479 503.981 323.427C511.068 321.303 511.863 295.574 507.397 290.434C502.559 284.867 484.812 288 478 288L394 288L394 286L476 286C483.666 286 500.415 289.12 506.682 284.142C511.696 280.16 511.098 253.318 504.941 250.742C498.716 248.137 488.673 250 482 250L429 250z"/>
<path style="fill:#68c5ff; stroke:none;" d="M505 250L506 251L505 250z"/>
<path style="fill:#b6d3e7; stroke:none;" d="M543 250L544 251L543 250z"/>
<path style="fill:#68c5ff; stroke:none;" d="M62 251L63 252L62 251M106 251L105 253L106 251z"/>
<path style="fill:#f7fafc; stroke:none;" d="M165 278L112 278L112 258L169 258L170 251L127 251C121.669 251 113.15 249.384 108.228 251.603C102.867 254.021 102.753 280.599 107.434 283.821C110.812 286.146 117.111 285 121 285L150 285C153.598 285 159.272 286.057 162.566 284.397C164.974 283.183 164.872 280.305 165 278z"/>
<path style="fill:#b6d3e7; stroke:none;" d="M281.667 251.333L282.333 251.667L281.667 251.333z"/>
<path style="fill:#68c5ff; stroke:none;" d="M283 251L284 252L283 251z"/>
<path style="fill:#31acff; stroke:none;" d="M260 278C235.976 282.336 234.706 309.216 242 327L243 327C243 320.613 241.297 310.833 248.055 307.179C254.746 303.562 267.536 306 275 306L339 306C346.297 306 360.733 303.264 366.852 307.742C372.126 311.602 370 322.263 370 328L371 328C381.054 310.709 377.459 282.233 354 278C352.56 261.507 338.187 250.329 322 251.039C316.757 251.269 312.027 254.693 307 254.728C301.956 254.764 297.202 251.285 292 251.04C275.874 250.281 261.434 261.571 260 278z"/>
<path style="fill:#68c5ff; stroke:none;" d="M296 251L297 252L296 251z"/>
<path style="fill:#b6d3e7; stroke:none;" d="M297 251L298 252L297 251M315.667 251.333L316.333 251.667L315.667 251.333z"/>
<path style="fill:#68c5ff; stroke:none;" d="M317 251L318 252L317 251M330 251L331 252L330 251z"/>
<path style="fill:#b6d3e7; stroke:none;" d="M331.667 251.333L332.333 251.667L331.667 251.333M61 252L62 253L61 252M278.667 252.333L279.333 252.667L278.667 252.333z"/>
<path style="fill:#68c5ff; stroke:none;" d="M299 252L300 253L299 252z"/>
<path style="fill:#b6d3e7; stroke:none;" d="M300 252L301 253L300 252M312 252L313 253L312 252z"/>
<path style="fill:#68c5ff; stroke:none;" d="M313 252L314 253L313 252M334 252L335 253L334 252z"/>
<path style="fill:#b6d3e7; stroke:none;" d="M544 252L545 253L544 252z"/>
<path style="fill:#68c5ff; stroke:none;" d="M61.3333 253.667L61.6667 254.333L61.3333 253.667z"/>
<path style="fill:#b6d3e7; stroke:none;" d="M105 253L106 254L105 253M276 253L277 254L276 253z"/>
<path style="fill:#68c5ff; stroke:none;" d="M277 253L278 254L277 253M302 253L303 254L302 253z"/>
<path style="fill:#b6d3e7; stroke:none;" d="M303 253L304 254L303 253M310 253L311 254L310 253z"/>
<path style="fill:#68c5ff; stroke:none;" d="M311 253L312 254L311 253M336 253L337 254L336 253z"/>
<path style="fill:#b6d3e7; stroke:none;" d="M337 253L338 254L337 253z"/>
<path style="fill:#68c5ff; stroke:none;" d="M544 253L545 254L544 253M104 254L104 282L105 282L104 254z"/>
<path style="fill:#b6d3e7; stroke:none;" d="M274 254L275 255L274 254z"/>
<path style="fill:#68c5ff; stroke:none;" d="M275 254L276 255L275 254M304 254L305 255L304 254z"/>
<path style="fill:#b6d3e7; stroke:none;" d="M308 254L309 255L308 254z"/>
<path style="fill:#68c5ff; stroke:none;" d="M309 254L310 255L309 254M338 254L339 255L338 254M273 255L274 256L273 255z"/>
<path style="fill:#b6d3e7; stroke:none;" d="M306 255L307 256L306 255z"/>
<path style="fill:#68c5ff; stroke:none;" d="M307 255L308 256L307 255M340 255L341 256L340 255z"/>
<path style="fill:#b6d3e7; stroke:none;" d="M60 256L61 257L60 256M271 256L272 257L271 256z"/>
<path style="fill:#68c5ff; stroke:none;" d="M509 256L509 280L510 280L509 256z"/>
<path style="fill:#b6d3e7; stroke:none;" d="M545 256L546 257L545 256z"/>
<path style="fill:#68c5ff; stroke:none;" d="M60.3333 257.667L60.6667 258.333L60.3333 257.667z"/>
<path style="fill:#b6d3e7; stroke:none;" d="M270 257L271 258L270 257M343 257L344 258L343 257z"/>
<path style="fill:#68c5ff; stroke:none;" d="M545 257L546 258L545 257z"/>
<path style="fill:#b6d3e7; stroke:none;" d="M112 258L113 259L112 258z"/>
<path style="fill:#414f5f; stroke:none;" d="M113 258L113 278L223 278L223 258L113 258z"/>
<path style="fill:#68c5ff; stroke:none;" d="M269 258L270 259L269 258z"/>
<path style="fill:#b6d3e7; stroke:none;" d="M344 258L345 259L344 258M390 258L390 278L391 278L390 258z"/>
<path style="fill:#414f5f; stroke:none;" d="M391 258L391 278L501 278L501 258L391 258z"/>
<path style="fill:#68c5ff; stroke:none;" d="M501 258L501 277L502 277L501 258M112 259L112 277L113 277L112 259M268 259L269 260L268 259z"/>
<path style="fill:#b6d3e7; stroke:none;" d="M345 259L346 260L345 259M59 260L60 261L59 260z"/>
<path style="fill:#68c5ff; stroke:none;" d="M267 260L268 261L267 260z"/>
<path style="fill:#b6d3e7; stroke:none;" d="M346 260L347 261L346 260M546 260L547 261L546 260M56 261L57 262L56 261z"/>
<path style="fill:#68c5ff; stroke:none;" d="M57 261L58 262L57 261z"/>
<path style="fill:#b6d3e7; stroke:none;" d="M266 261L267 262L266 261M347 261L348 262L347 261z"/>
<path style="fill:#68c5ff; stroke:none;" d="M548 261L549 262L548 261z"/>
<path style="fill:#b6d3e7; stroke:none;" d="M549 261L550 262L549 261M54 262L55 263L54 262M265 262L266 263L265 262M348 262L349 263L348 262M551 262L552 263L551 262M52 263L53 264L52 263M553 263L554 264L553 263M50 264L51 265L50 264z"/>
<path style="fill:#68c5ff; stroke:none;" d="M51 264L52 265L51 264M264 264L265 265L264 264M349 264L350 265L349 264z"/>
<path style="fill:#b6d3e7; stroke:none;" d="M555 264L556 265L555 264M49 265L50 266L49 265z"/>
<path style="fill:#31acff; stroke:none;" d="M153.318 266.171C150.881 267.556 153.074 271.084 155.397 269.677C157.608 268.339 155.618 264.865 153.318 266.171M167.564 266.171C165.573 267.471 167.241 271.261 169.436 269.829C171.427 268.529 169.759 264.739 167.564 266.171z"/>
<path style="fill:#b6d3e7; stroke:none;" d="M181 265L182 266L181 265z"/>
<path style="fill:#f7fafc; stroke:none;" d="M180 270L185 270C184.176 265.279 180.824 265.279 180 270z"/>
<path style="fill:#b6d3e7; stroke:none;" d="M183 265L184 266L183 265M195 265L196 266L195 265z"/>
<path style="fill:#f7fafc; stroke:none;" d="M194 266L199 270L198 265L194 266z"/>
<path style="fill:#68c5ff; stroke:none;" d="M198 265L199 266L198 265z"/>
<path style="fill:#31acff; stroke:none;" d="M209.603 266.082C207.132 267.872 209.918 271.713 212.397 269.918C214.868 268.128 212.082 264.287 209.603 266.082z"/>
<path style="fill:#b6d3e7; stroke:none;" d="M263 265L264 266L263 265M350 265L351 266L350 265z"/>
<path style="fill:#31acff; stroke:none;" d="M431.564 266.171C429.573 267.471 431.241 271.261 433.436 269.829C435.427 268.529 433.759 264.739 431.564 266.171M445.603 266.171C443.4 267.505 445.323 271.169 447.682 269.829C450.109 268.45 447.916 264.77 445.603 266.171z"/>
<path style="fill:#b6d3e7; stroke:none;" d="M459 265L458 267L459 265z"/>
<path style="fill:#f7fafc; stroke:none;" d="M458 269L463 270L462 265L458 269z"/>
<path style="fill:#b6d3e7; stroke:none;" d="M462 265L463 266L462 265z"/>
<path style="fill:#68c5ff; stroke:none;" d="M473 265L472 267L473 265z"/>
<path style="fill:#f7fafc; stroke:none;" d="M474 265C472.333 272.127 480.022 268.422 474 265z"/>
<path style="fill:#b6d3e7; stroke:none;" d="M476 265L477 266L476 265z"/>
<path style="fill:#31acff; stroke:none;" d="M487.607 266.042C485.036 268.067 488.01 271.541 490.657 269.918C493.887 267.938 490.38 263.859 487.607 266.042z"/>
<path style="fill:#68c5ff; stroke:none;" d="M556 265L557 266L556 265M48 266L49 267L48 266M263 266L264 267L263 266M463 266L464 267L463 266z"/>
<path style="fill:#b6d3e7; stroke:none;" d="M477 266L478 267L477 266M46 267L47 268L46 267z"/>
<path style="fill:#68c5ff; stroke:none;" d="M185.333 267.667L185.667 268.333L185.333 267.667z"/>
<path style="fill:#b6d3e7; stroke:none;" d="M199.333 267.667L199.667 268.333L199.333 267.667z"/>
<path style="fill:#68c5ff; stroke:none;" d="M262 267L263 268L262 267z"/>
<path style="fill:#b6d3e7; stroke:none;" d="M351 267L352 268L351 267M463.333 267.667L463.667 268.333L463.333 267.667M472.333 267.667L472.667 268.333L472.333 267.667M559 267L560 268L559 267M45 268L46 269L45 268M560 268L561 269L560 268z"/>
<path style="fill:#68c5ff; stroke:none;" d="M44 269L45 270L44 269z"/>
<path style="fill:#b6d3e7; stroke:none;" d="M194 269L195 270L194 269M261 269L262 270L261 269M352 269L353 270L352 269z"/>
<path style="fill:#68c5ff; stroke:none;" d="M458 269L459 270L458 269M463 269L464 270L463 269z"/>
<path style="fill:#b6d3e7; stroke:none;" d="M477 269L478 270L477 269z"/>
<path style="fill:#68c5ff; stroke:none;" d="M561 269L562 270L561 269M43 270L44 271L43 270z"/>
<path style="fill:#b6d3e7; stroke:none;" d="M181 270L181 271L184 271L181 270M195 270L195 271L198 271L195 270z"/>
<path style="fill:#68c5ff; stroke:none;" d="M261 270L262 271L261 270M352 270L353 271L352 270M459 270L460 271L459 270z"/>
<path style="fill:#b6d3e7; stroke:none;" d="M460.667 270.333L461.333 270.667L460.667 270.333z"/>
<path style="fill:#68c5ff; stroke:none;" d="M462 270L463 271L462 270M473 270L474 271L473 270z"/>
<path style="fill:#b6d3e7; stroke:none;" d="M474 270L475 271L474 270M476 270L477 271L476 270z"/>
<path style="fill:#68c5ff; stroke:none;" d="M562 270L563 271L562 270M42 271L43 272L42 271z"/>
<path style="fill:#b6d3e7; stroke:none;" d="M260.333 271.667L260.667 272.333L260.333 271.667z"/>
<path style="fill:#68c5ff; stroke:none;" d="M563 271L564 272L563 271z"/>
<path style="fill:#b6d3e7; stroke:none;" d="M41 272L42 273L41 272M353 272L354 273L353 272z"/>
<path style="fill:#68c5ff; stroke:none;" d="M564 272L565 273L564 272z"/>
<path style="fill:#b6d3e7; stroke:none;" d="M40 273L41 274L40 273z"/>
<path style="fill:#68c5ff; stroke:none;" d="M260 273L261 274L260 273M353 273L354 274L353 273z"/>
<path style="fill:#b6d3e7; stroke:none;" d="M565 273L566 274L565 273M39 274L40 275L39 274M566 274L567 275L566 274z"/>
<path style="fill:#68c5ff; stroke:none;" d="M39 275L40 276L39 275z"/>
<path style="fill:#b6d3e7; stroke:none;" d="M259 275L258 278L259 275z"/>
<path style="fill:#68c5ff; stroke:none;" d="M38 276L39 277L38 276z"/>
<path style="fill:#b6d3e7; stroke:none;" d="M354 276L356 278L354 276z"/>
<path style="fill:#68c5ff; stroke:none;" d="M567 276L568 277L567 276z"/>
<path style="fill:#b6d3e7; stroke:none;" d="M37 277L38 278L37 277M112 277L113 278L112 277z"/>
<path style="fill:#68c5ff; stroke:none;" d="M259 277L260 278L259 277M354 277L355 278L354 277z"/>
<path style="fill:#b6d3e7; stroke:none;" d="M568 277L569 278L568 277z"/>
<path style="fill:#68c5ff; stroke:none;" d="M37 278L38 279L37 278z"/>
<path style="fill:#b6d3e7; stroke:none;" d="M256 278L257 279L256 278M357 278L358 279L357 278z"/>
<path style="fill:#68c5ff; stroke:none;" d="M36 279L37 280L36 279z"/>
<path style="fill:#b6d3e7; stroke:none;" d="M254 279L255 280L254 279M359 279L360 280L359 279z"/>
<path style="fill:#68c5ff; stroke:none;" d="M569 279L570 280L569 279z"/>
<path style="fill:#b6d3e7; stroke:none;" d="M252 280L253 281L252 280M361 280L362 281L361 280M570 280L571 281L570 280z"/>
<path style="fill:#68c5ff; stroke:none;" d="M35 281L36 282L35 281M251 281L252 282L251 281M362 281L363 282L362 281M570 281L571 282L570 281z"/>
<path style="fill:#b6d3e7; stroke:none;" d="M105 282L106 283L105 282M249 282L250 283L249 282M364 282L365 283L364 282M571 282L572 283L571 282z"/>
<path style="fill:#68c5ff; stroke:none;" d="M34 283L35 284L34 283M105 283L106 284L105 283M248 283L249 284L248 283z"/>
<path style="fill:#b6d3e7; stroke:none;" d="M365 283L366 284L365 283z"/>
<path style="fill:#68c5ff; stroke:none;" d="M571 283L572 284L571 283M106 284L107 285L106 284z"/>
<path style="fill:#b6d3e7; stroke:none;" d="M107 284L108 285L107 284z"/>
<path style="fill:#68c5ff; stroke:none;" d="M247 284L248 285L247 284M366 284L367 285L366 284z"/>
<path style="fill:#b6d3e7; stroke:none;" d="M33 285L34 286L33 285z"/>
<path style="fill:#68c5ff; stroke:none;" d="M108 285L109 286L108 285M246 285L247 286L246 285M367 285L368 286L367 285M504.667 285.333L505.333 285.667L504.667 285.333z"/>
<path style="fill:#b6d3e7; stroke:none;" d="M572 285L573 286L572 285z"/>
<path style="fill:#68c5ff; stroke:none;" d="M33 286L34 287L33 286z"/>
<path style="fill:#414f5f; stroke:none;" d="M115 286L115 288L220 288L220 286L115 286z"/>
<path style="fill:#68c5ff; stroke:none;" d="M220.333 286.667L220.667 287.333L220.333 286.667M245 286L246 287L245 286M368 286L369 287L368 286z"/>
<path style="fill:#414f5f; stroke:none;" d="M394 286L394 288L499 288L499 286L394 286z"/>
<path style="fill:#68c5ff; stroke:none;" d="M572 286L573 287L572 286M244 287L245 288L244 287M369 287L370 288L369 287z"/>
<path style="fill:#b6d3e7; stroke:none;" d="M32 288L33 289L32 288z"/>
<path style="fill:#68c5ff; stroke:none;" d="M108 288L109 289L108 288z"/>
<path style="fill:#b6d3e7; stroke:none;" d="M109 288L109 289L163 289L162 296L223 296L223 316L159 316L158 323L109 323C117.596 326.607 131.678 324 141 324L197 324C206.137 324 217.12 325.567 225.941 322.721C231.895 320.801 232.575 294.813 228.397 290.603C222.741 284.904 204.389 288 197 288L109 288M243 288L244 289L243 288M370 288L371 289L370 288z"/>
<path style="fill:#68c5ff; stroke:none;" d="M505 288L506 289L505 288z"/>
<path style="fill:#b6d3e7; stroke:none;" d="M573 288L574 289L573 288z"/>
<path style="fill:#68c5ff; stroke:none;" d="M32.3333 289.667L32.6667 290.333L32.3333 289.667M106 289L105 291L106 289z"/>
<path style="fill:#f7fafc; stroke:none;" d="M158 323L159 316L112 316L112 296L150 296C156.761 296 162.728 297.297 163 289L123 289C118.788 289 111.057 287.534 107.434 290.028C102.708 293.28 102.891 319.765 108.228 322.258C112.5 324.253 119.385 323 124 323L158 323z"/>
<path style="fill:#b6d3e7; stroke:none;" d="M242 289L243 290L242 289z"/>
<path style="fill:#68c5ff; stroke:none;" d="M573 289L574 290L573 289M242 290L243 291L242 290M371 290L372 291L371 290z"/>
<path style="fill:#b6d3e7; stroke:none;" d="M105 291L106 292L105 291z"/>
<path style="fill:#68c5ff; stroke:none;" d="M241 291L242 292L241 291z"/>
<path style="fill:#b6d3e7; stroke:none;" d="M372 291L373 292L372 291M31.3333 292.667L31.6667 293.333L31.3333 292.667z"/>
<path style="fill:#68c5ff; stroke:none;" d="M104 292L104 320L105 320L104 292z"/>
<path style="fill:#b6d3e7; stroke:none;" d="M574.333 292.667L574.667 293.333L574.333 292.667z"/>
<path style="fill:#68c5ff; stroke:none;" d="M240 293L241 294L240 293M373 293L374 294L373 293M31 294L31 298L32 298L31 294z"/>
<path style="fill:#b6d3e7; stroke:none;" d="M239 294L240 295L239 294z"/>
<path style="fill:#68c5ff; stroke:none;" d="M509 294L509 318L510 318L509 294M574 294L575 295L574 294M239 295L240 296L239 295z"/>
<path style="fill:#b6d3e7; stroke:none;" d="M374 295L375 296L374 295z"/>
<path style="fill:#68c5ff; stroke:none;" d="M112 296L113 297L112 296z"/>
<path style="fill:#414f5f; stroke:none;" d="M223 316L223 296L146 296C137.656 296 121.816 292.914 114.318 296.603C110.664 298.402 111.027 310.478 112.603 313.682C115.101 318.757 133.967 316 139 316L223 316z"/>
<path style="fill:#b6d3e7; stroke:none;" d="M390 296L390 316L391 316L390 296z"/>
<path style="fill:#414f5f; stroke:none;" d="M391 296L391 316L501 316L501 296L391 296z"/>
<path style="fill:#68c5ff; stroke:none;" d="M501 296L501 316L502 316L501 296z"/>
<path style="fill:#b6d3e7; stroke:none;" d="M238 297L239 298L238 297M375 297L376 298L375 297z"/>
<path style="fill:#68c5ff; stroke:none;" d="M238 298L239 299L238 298M375 298L376 299L375 298z"/>
<path style="fill:#b6d3e7; stroke:none;" d="M237 300L238 301L237 300M376.333 300.667L376.667 301.333L376.333 300.667z"/>
<path style="fill:#68c5ff; stroke:none;" d="M237.333 301.667L237.667 302.333L237.333 301.667M31 302L31 306L32 306L31 302M376 302L377 303L376 302M152 303L151 305L152 303z"/>
<path style="fill:#f7fafc; stroke:none;" d="M153 303C151.333 310.127 159.022 306.422 153 303z"/>
<path style="fill:#b6d3e7; stroke:none;" d="M155 303L156 304L155 303z"/>
<path style="fill:#31acff; stroke:none;" d="M167.564 304.171C165.573 305.471 167.241 309.261 169.436 307.829C171.427 306.529 169.759 302.739 167.564 304.171z"/>
<path style="fill:#b6d3e7; stroke:none;" d="M181 303L182 304L181 303z"/>
<path style="fill:#f7fafc; stroke:none;" d="M182.174 304.171C179.803 304.586 180.456 308.244 182.826 307.829C185.197 307.414 184.544 303.756 182.174 304.171z"/>
<path style="fill:#b6d3e7; stroke:none;" d="M183 303L184 304L183 303z"/>
<path style="fill:#31acff; stroke:none;" d="M195.603 304.171C193.4 305.505 195.322 309.169 197.682 307.829C200.108 306.45 197.916 302.77 195.603 304.171M209.603 304.082C207.132 305.872 209.918 309.713 212.397 307.918C214.868 306.128 212.082 302.287 209.603 304.082z"/>
<path style="fill:#b6d3e7; stroke:none;" d="M431 303L432 304L431 303z"/>
<path style="fill:#f7fafc; stroke:none;" d="M432.174 304.171C429.803 304.586 430.456 308.244 432.826 307.829C435.197 307.414 434.544 303.756 432.174 304.171z"/>
<path style="fill:#b6d3e7; stroke:none;" d="M433 303L434 304L433 303z"/>
<path style="fill:#31acff; stroke:none;" d="M445.603 304.171C443.4 305.505 445.323 309.169 447.682 307.829C450.109 306.45 447.916 302.77 445.603 304.171z"/>
<path style="fill:#b6d3e7; stroke:none;" d="M459 303L458 305L459 303z"/>
<path style="fill:#f7fafc; stroke:none;" d="M458 307L463 308L462 303L458 307z"/>
<path style="fill:#b6d3e7; stroke:none;" d="M462 303L463 304L462 303z"/>
<path style="fill:#31acff; stroke:none;" d="M474.318 304.171C471.881 305.556 474.074 309.084 476.397 307.677C478.608 306.339 476.618 302.864 474.318 304.171M487.607 304.042C485.036 306.067 488.01 309.541 490.657 307.918C493.887 305.938 490.38 301.859 487.607 304.042z"/>
<path style="fill:#b6d3e7; stroke:none;" d="M156 304L157 305L156 304z"/>
<path style="fill:#68c5ff; stroke:none;" d="M463 304L464 305L463 304M574.333 304.667L574.667 305.333L574.333 304.667z"/>
<path style="fill:#b6d3e7; stroke:none;" d="M151.333 305.667L151.667 306.333L151.333 305.667z"/>
<path style="fill:#68c5ff; stroke:none;" d="M185.333 305.667L185.667 306.333L185.333 305.667z"/>
<path style="fill:#b6d3e7; stroke:none;" d="M236 305L236 312L237 312L236 305z"/>
<path style="fill:#68c5ff; stroke:none;" d="M435.333 305.667L435.667 306.333L435.333 305.667z"/>
<path style="fill:#b6d3e7; stroke:none;" d="M463.333 305.667L463.667 306.333L463.333 305.667M31.3333 306.667L31.6667 307.333L31.3333 306.667z"/>
<path style="fill:#68c5ff; stroke:none;" d="M248 306L248 307L366 307L330 306L248 306z"/>
<path style="fill:#b6d3e7; stroke:none;" d="M574.333 306.667L574.667 307.333L574.333 306.667M156 307L157 308L156 307M246 307L247 308L246 307M309 307L308 314L362 314L362 334L252 334L252 314L251 314L252.028 333.397L265 335L304 335L304 341L267 341C262.152 341 255.815 339.532 254 345L255 345L255 342L333 342C342.788 342 357.681 344.631 366.772 340.4C372.534 337.719 372.387 310.365 366.772 307.742C362.038 305.531 354.129 307 349 307L309 307z"/>
<path style="fill:#68c5ff; stroke:none;" d="M367 307L368 308L367 307z"/>
<path style="fill:#b6d3e7; stroke:none;" d="M377 307L377 311L378 311L377 307M458 307L459 308L458 307z"/>
<path style="fill:#68c5ff; stroke:none;" d="M463 307L464 308L463 307M152 308L153 309L152 308z"/>
<path style="fill:#b6d3e7; stroke:none;" d="M153 308L154 309L153 308M155 308L156 309L155 308M181 308L182 309L181 308M183 308L184 309L183 308M245 308L246 309L245 308M431 308L432 309L431 308M433 308L434 309L433 308M459 308L459 309L462 309L459 308z"/>
<path style="fill:#68c5ff; stroke:none;" d="M462 308L463 309L462 308M32 309L33 310L32 309z"/>
<path style="fill:#b6d3e7; stroke:none;" d="M244.333 309.667L244.667 310.333L244.333 309.667z"/>
<path style="fill:#68c5ff; stroke:none;" d="M369 309L370 310L369 309z"/>
<path style="fill:#b6d3e7; stroke:none;" d="M32.3333 310.667L32.6667 311.333L32.3333 310.667z"/>
<path style="fill:#68c5ff; stroke:none;" d="M573 310L574 311L573 310z"/>
<path style="fill:#b6d3e7; stroke:none;" d="M573 311L574 312L573 311z"/>
<path style="fill:#68c5ff; stroke:none;" d="M243 312L243 328L244 328L243 312M33 313L34 314L33 313M572 313L573 314L572 313z"/>
<path style="fill:#b6d3e7; stroke:none;" d="M33 314L34 315L33 314z"/>
<path style="fill:#68c5ff; stroke:none;" d="M237.333 314.667L237.667 315.333L237.333 314.667z"/>
<path style="fill:#414f5f; stroke:none;" d="M252 314L252 334L362 334L362 314L252 314z"/>
<path style="fill:#68c5ff; stroke:none;" d="M376.333 314.667L376.667 315.333L376.333 314.667z"/>
<path style="fill:#b6d3e7; stroke:none;" d="M572 314L573 315L572 314z"/>
<path style="fill:#68c5ff; stroke:none;" d="M112 315L113 316L112 315z"/>
<path style="fill:#b6d3e7; stroke:none;" d="M34 316L35 317L34 316M237 316L238 317L237 316M376 316L377 317L376 316M571 316L572 317L571 316M35 318L36 319L35 318z"/>
<path style="fill:#68c5ff; stroke:none;" d="M238 318L239 319L238 318M375 318L376 319L375 318M570 318L571 319L570 318z"/>
<path style="fill:#b6d3e7; stroke:none;" d="M238.333 319.667L238.667 320.333L238.333 319.667M375 319L376 320L375 319M36 320L37 321L36 320M105 320L106 321L105 320M569 320L570 321L569 320z"/>
<path style="fill:#68c5ff; stroke:none;" d="M37 321L38 322L37 321M239 321L240 322L239 321z"/>
<path style="fill:#31acff; stroke:none;" d="M292 321C289.203 329.267 299.891 324.178 292 321M307.174 322.175C304.794 322.609 305.437 326.542 307.826 326.083C310.176 325.632 309.609 321.731 307.174 322.175z"/>
<path style="fill:#68c5ff; stroke:none;" d="M320 321L321 322L320 321z"/>
<path style="fill:#b6d3e7; stroke:none;" d="M321.667 321.333L322.333 321.667L321.667 321.333M335.667 321.333L336.333 321.667L335.667 321.333z"/>
<path style="fill:#31acff; stroke:none;" d="M348.603 322.086C346.224 323.858 348.751 328.253 351.411 326.674C354.226 325.003 351.399 320.003 348.603 322.086z"/>
<path style="fill:#68c5ff; stroke:none;" d="M374 321L375 322L374 321z"/>
<path style="fill:#b6d3e7; stroke:none;" d="M37 322L38 323L37 322M107 322L108 323L107 322M239 322L240 323L239 322M319 322L320 323L319 322z"/>
<path style="fill:#f7fafc; stroke:none;" d="M324 322C316.691 323.218 322.782 329.309 324 322z"/>
<path style="fill:#68c5ff; stroke:none;" d="M333 322L334 323L333 322z"/>
<path style="fill:#f7fafc; stroke:none;" d="M333 323L337 327L338 322L333 323z"/>
<path style="fill:#b6d3e7; stroke:none;" d="M568 322L569 323L568 322M38 323L39 324L38 323z"/>
<path style="fill:#68c5ff; stroke:none;" d="M108 323L109 324L108 323M240 323L241 324L240 323z"/>
<path style="fill:#b6d3e7; stroke:none;" d="M324.333 323.667L324.667 324.333L324.333 323.667M338 323L338 326L339 326L338 323z"/>
<path style="fill:#68c5ff; stroke:none;" d="M373 323L374 324L373 323M504.667 323.333L505.333 323.667L504.667 323.333M567 323L568 324L567 323M39 324L40 325L39 324z"/>
<path style="fill:#414f5f; stroke:none;" d="M115 324L115 327L220 327L220 324L115 324z"/>
<path style="fill:#68c5ff; stroke:none;" d="M220 324L220 327L221 327L220 324z"/>
<path style="fill:#b6d3e7; stroke:none;" d="M240 324L241 325L240 324z"/>
<path style="fill:#414f5f; stroke:none;" d="M394 324L394 327L499 327L499 324L394 324z"/>
<path style="fill:#68c5ff; stroke:none;" d="M241 325L242 326L241 325M324 325L325 326L324 325z"/>
<path style="fill:#b6d3e7; stroke:none;" d="M333 325L334 326L333 325z"/>
<path style="fill:#68c5ff; stroke:none;" d="M372 325L373 326L372 325z"/>
<path style="fill:#b6d3e7; stroke:none;" d="M40 326L41 327L40 326M323 326L324 327L323 326M334 326L335 327L334 326M337 326L338 327L337 326M565 326L566 327L565 326M41 327L42 328L41 327z"/>
<path style="fill:#68c5ff; stroke:none;" d="M107 327L108 328L107 327z"/>
<path style="fill:#b6d3e7; stroke:none;" d="M108 327L109 328L108 327M157 327C155.614 339.298 121.961 334 112 334L112 335L223 335L223 355L169 355C161.693 355 152.525 352.531 152 362L206 362C211.713 362 222.768 364.1 227.682 360.821C232.868 357.36 231.869 329.997 225.941 327.603C220.239 325.3 211.093 327 205 327L157 327M242 327L243 328L242 327M371 327L372 328L371 327M435 334L403 334L391.028 335.603L390 354L391 354L391 335L502 335L500.397 353.397L482 355L431 355L430 362L482 362C488.628 362 498.748 363.898 504.941 361.397C511.382 358.795 511.638 331.454 505.852 328.028C501.622 325.523 493.756 327 489 327L449 327C442.094 327 435.284 325.351 435 334z"/>
<path style="fill:#68c5ff; stroke:none;" d="M506 327L507 328L506 327z"/>
<path style="fill:#b6d3e7; stroke:none;" d="M564 327L565 328L564 327M42 328L43 329L42 328M106 328L107 329L106 328M243 328L244 329L243 328z"/>
<path style="fill:#68c5ff; stroke:none;" d="M507 328L508 329L507 328z"/>
<path style="fill:#b6d3e7; stroke:none;" d="M563 328L564 329L563 328M43 329L44 330L43 329z"/>
<path style="fill:#68c5ff; stroke:none;" d="M105 329L106 330L105 329M508 329L509 330L508 329z"/>
<path style="fill:#b6d3e7; stroke:none;" d="M562 329L563 330L562 329M44 330L45 331L44 330M105 330L106 331L105 330M561 330L562 331L561 330M45 331L46 332L45 331z"/>
<path style="fill:#68c5ff; stroke:none;" d="M104 331L104 341L105 341L104 331z"/>
<path style="fill:#b6d3e7; stroke:none;" d="M560 331L561 332L560 331z"/>
<path style="fill:#68c5ff; stroke:none;" d="M47 332L48 333L47 332M509 332L509 341L510 341L509 332M48 333L49 334L48 333M557 333L558 334L557 333z"/>
<path style="fill:#b6d3e7; stroke:none;" d="M49 334L50 335L49 334z"/>
<path style="fill:#68c5ff; stroke:none;" d="M50 334L51 335L50 334z"/>
<path style="fill:#b6d3e7; stroke:none;" d="M556 334L557 335L556 334z"/>
<path style="fill:#68c5ff; stroke:none;" d="M51 335L52 336L51 335z"/>
<path style="fill:#414f5f; stroke:none;" d="M112 335L112 354L223 354L223 335L112 335M391 335L391 354L501 354L501 335L391 335z"/>
<path style="fill:#68c5ff; stroke:none;" d="M501 335L501 354L502 354L501 335M554 335L555 336L554 335M53 336L54 337L53 336M552 336L553 337L552 336M55 337L56 338L55 337M550 337L551 338L550 337z"/>
<path style="fill:#b6d3e7; stroke:none;" d="M57 338L58 339L57 338z"/>
<path style="fill:#68c5ff; stroke:none;" d="M58 338L59 339L58 338M547 338L548 339L547 338z"/>
<path style="fill:#b6d3e7; stroke:none;" d="M548 338L549 339L548 338M60 339L61 340L60 339z"/>
<path style="fill:#68c5ff; stroke:none;" d="M61 339L62 340L61 339M544 339L545 340L544 339z"/>
<path style="fill:#b6d3e7; stroke:none;" d="M545 339L546 340L545 339M63.6667 340.333L64.3333 340.667L63.6667 340.333z"/>
<path style="fill:#68c5ff; stroke:none;" d="M65.6667 340.333L66.3333 340.667L65.6667 340.333M540 340L541 341L540 340z"/>
<path style="fill:#b6d3e7; stroke:none;" d="M541.667 340.333L542.333 340.667L541.667 340.333M70 341L70 342L101 342L70 341z"/>
<path style="fill:#68c5ff; stroke:none;" d="M182 341L183 342L182 341z"/>
<path style="fill:#31acff; stroke:none;" d="M210.26 341.971C207.119 342.921 208.462 348.219 211.74 347.11C214.845 346.06 213.525 340.983 210.26 341.971z"/>
<path style="fill:#68c5ff; stroke:none;" d="M432 341L433 342L432 341z"/>
<path style="fill:#31acff; stroke:none;" d="M488.293 342.175C485.344 343.728 487.699 348.382 490.657 346.825C493.506 345.326 491.188 340.651 488.293 342.175z"/>
<path style="fill:#b6d3e7; stroke:none;" d="M152 342L151 346L152 346L152 342z"/>
<path style="fill:#f7fafc; stroke:none;" d="M152 347C159.309 345.782 153.218 339.691 152 347z"/>
<path style="fill:#31acff; stroke:none;" d="M166 342L166 347C170.992 346.168 170.992 342.832 166 342z"/>
<path style="fill:#b6d3e7; stroke:none;" d="M180 342L181 343L180 342z"/>
<path style="fill:#f7fafc; stroke:none;" d="M181.603 343.157C179.87 344.314 181.664 347.001 183.397 345.843C185.13 344.686 183.336 341.999 181.603 343.157z"/>
<path style="fill:#b6d3e7; stroke:none;" d="M184 342L185 343L184 342z"/>
<path style="fill:#31acff; stroke:none;" d="M195.617 343.067C193.57 344.655 196.282 347.445 198.168 345.933C200.148 344.345 197.535 341.581 195.617 343.067z"/>
<path style="fill:#414f5f; stroke:none;" d="M255 342L255 345L334 345C340.471 345 356.183 347.888 360 342L255 342z"/>
<path style="fill:#b6d3e7; stroke:none;" d="M430 342L431 343L430 342z"/>
<path style="fill:#f7fafc; stroke:none;" d="M431.603 343.157C429.87 344.315 431.664 347.001 433.397 345.843C435.13 344.686 433.336 341.998 431.603 343.157z"/>
<path style="fill:#b6d3e7; stroke:none;" d="M434 342L435 343L434 342z"/>
<path style="fill:#31acff; stroke:none;" d="M445.617 343.067C443.57 344.655 446.282 347.445 448.168 345.933C450.148 344.345 447.535 341.581 445.617 343.067z"/>
<path style="fill:#f7fafc; stroke:none;" d="M459.806 343.067C457.974 344.611 460.353 347.484 462.194 345.933C464.027 344.389 461.647 341.516 459.806 343.067z"/>
<path style="fill:#31acff; stroke:none;" d="M473.643 343.067C471.453 344.69 474.404 347.38 476.357 345.933C478.547 344.31 475.596 341.62 473.643 343.067z"/>
<path style="fill:#b6d3e7; stroke:none;" d="M458 343L459 344L458 343M463 343L464 344L463 343z"/>
<path style="fill:#68c5ff; stroke:none;" d="M179 344L180 345L179 344M185 344L186 345L185 344M359 344L360 345L359 344z"/>
<path style="fill:#b6d3e7; stroke:none;" d="M435 344L436 345L435 344M302 352L362 352L362 372L252 372L252 352L251 352L252.028 371.397L264 373L298 373C295.863 383.247 273.372 378.999 265 379C259.956 379 254.995 378.041 254 384L296 384L295 391L362 391L362 411L292 411L291 416L343 416C350.118 416 359.955 417.772 366.772 415.682C372.751 413.849 371.675 388.093 366.772 385.024C359.088 380.214 343.695 383 335 383L255 383L255 380L329 380C340.537 380 354.742 382.151 365.891 378.697C372.329 376.702 372.064 351.933 368.258 347.318C365 343.368 356.541 345 352 345L315 345C308.239 345 302.272 343.703 302 352M458 345L459 346L458 345M463 345L464 346L463 345M180 346L181 347L180 346M184 346L185 347L184 346M430 346L431 347L430 346M434 346L435 347L434 346z"/>
<path style="fill:#68c5ff; stroke:none;" d="M153.667 347.333L154.333 347.667L153.667 347.333z"/>
<path style="fill:#b6d3e7; stroke:none;" d="M182 347L183 348L182 347M432 347L433 348L432 347z"/>
<path style="fill:#68c5ff; stroke:none;" d="M460.667 347.333L461.333 347.667L460.667 347.333z"/>
<path style="fill:#414f5f; stroke:none;" d="M252 352L252 372L362 372L362 352L252 352z"/>
<path style="fill:#b6d3e7; stroke:none;" d="M112 354L113 355L112 354z"/>
<path style="fill:#68c5ff; stroke:none;" d="M113 354L113 355L223 355L190 354L113 354M391 354L391 355L501 355L468 354L391 354z"/>
<path style="fill:#b6d3e7; stroke:none;" d="M292.667 359.333L293.333 359.667L292.667 359.333z"/>
<path style="fill:#68c5ff; stroke:none;" d="M294 359L295 360L294 359z"/>
<path style="fill:#31acff; stroke:none;" d="M309 359C301.566 361.994 310.902 367.345 309 359z"/>
<path style="fill:#b6d3e7; stroke:none;" d="M319 360L319 361L323 360L319 360z"/>
<path style="fill:#31acff; stroke:none;" d="M335.275 360.341C332.812 361.287 334.05 365.144 336.606 364.249C339.088 363.38 337.774 359.381 335.275 360.341M348.603 360.083C346.168 361.866 348.916 366.134 351.397 364.173C353.789 362.281 351.197 358.183 348.603 360.083z"/>
<path style="fill:#f7fafc; stroke:none;" d="M291 360L292 365L296 364L291 360z"/>
<path style="fill:#b6d3e7; stroke:none;" d="M295 360L296 361L295 360z"/>
<path style="fill:#f7fafc; stroke:none;" d="M319 361L320 365L324 360L319 361z"/>
<path style="fill:#b6d3e7; stroke:none;" d="M290.333 361.667L290.667 362.333L290.333 361.667M324.333 361.667L324.667 362.333L324.333 361.667M319 363L320 364L319 363z"/>
<path style="fill:#68c5ff; stroke:none;" d="M324 363L325 364L324 363z"/>
<path style="fill:#b6d3e7; stroke:none;" d="M291 364L292 365L291 364M294 364L295 365L294 364z"/>
<path style="fill:#68c5ff; stroke:none;" d="M323 364L324 365L323 364z"/>
<path style="fill:#414f5f; stroke:none;" d="M255 380L255 383L360 383L360 380L255 380z"/>
<path style="fill:#b6d3e7; stroke:none;" d="M251 391L251 411L252 411L251 391z"/>
<path style="fill:#414f5f; stroke:none;" d="M252 391L252 411L362 411L362 391L252 391z"/>
<path style="fill:#31acff; stroke:none;" d="M349.264 398.345C346.449 399.411 347.66 404.261 350.736 403.248C353.643 402.292 352.17 397.245 349.264 398.345z"/>
<path style="fill:#68c5ff; stroke:none;" d="M291 398L292 399L291 398z"/>
<path style="fill:#f7fafc; stroke:none;" d="M292 398L291 403L296 399L292 398z"/>
<path style="fill:#b6d3e7; stroke:none;" d="M294 398L295 399L294 398z"/>
<path style="fill:#31acff; stroke:none;" d="M306.564 399.171C304.573 400.471 306.241 404.261 308.436 402.829C310.427 401.529 308.759 397.739 306.564 399.171z"/>
<path style="fill:#b6d3e7; stroke:none;" d="M320 398L321 399L320 398z"/>
<path style="fill:#f7fafc; stroke:none;" d="M319 399L324 403L323 398L319 399z"/>
<path style="fill:#b6d3e7; stroke:none;" d="M323 398L324 399L323 398z"/>
<path style="fill:#31acff; stroke:none;" d="M334.618 399.082C332.567 400.758 335.309 404.09 337.307 402.268C339.231 400.513 336.643 397.426 334.618 399.082z"/>
<path style="fill:#b6d3e7; stroke:none;" d="M290.333 400.667L290.667 401.333L290.333 400.667M324.333 400.667L324.667 401.333L324.333 400.667M295 402L296 403L295 402M319 402L320 403L319 402M292 403L292 404L295 404L292 403z"/>
<path style="fill:#68c5ff; stroke:none;" d="M320 403L321 404L320 403z"/>
<path style="fill:#b6d3e7; stroke:none;" d="M321.667 403.333L322.333 403.667L321.667 403.333z"/>
</svg>
