<?xml version="1.0" standalone="yes"?>
<svg xmlns="http://www.w3.org/2000/svg" width="590" height="565">
<path style="fill:#f2f4f6; stroke:none;" d="M0 0L0 565L590 565L590 0L0 0z"/>
<path style="fill:#63a9d6; stroke:none;" d="M313 99L312 101L313 99z"/>
<path style="fill:#038bde; stroke:none;" d="M315 151C316.006 148.966 316.916 144.302 319.314 143.496C323.461 142.104 326.374 148.466 330.663 144.408C334.219 141.044 329.403 136.923 331.8 133.148C334.093 129.536 340.217 130.423 339.793 125.039C339.448 120.655 334.715 121.91 333.171 118.683C331.486 115.159 336.2 111.753 332.663 108.373C327.202 103.154 322.541 111.063 321 100C312.606 99.4362 314.926 103.802 308.853 106.762C304.813 108.731 301.098 103.179 297.323 106.492C293.198 110.112 298.693 113.824 296.829 117.566C295.249 120.738 290.313 119.251 289.337 123.143C287.689 129.717 295.165 127.211 296.543 131.303C297.584 134.393 293.445 136.638 295.086 139.976C297.843 145.585 301.969 140.069 305.643 142.032C310.493 144.625 307.159 149.446 315 151z"/>
<path style="fill:#63a9d6; stroke:none;" d="M316 99L316 100L319 100L316 99M321.333 101.667L321.667 102.333L321.333 101.667M299 104L300 105L299 104M301 104L302 105L301 104M321 104L321 107L322 107L321 104M302 105L303 106L302 105M311 105L312 106L311 105M303 106L304 107L303 106M310 106L311 107L310 106M328 106L329 107L328 106M331 106L332 107L331 106M295 107L296 108L295 107M304 107L305 108L304 107M308 107L309 108L308 107M327 107L328 108L327 107M332 107L333 108L332 107M323 108L324 109L323 108M325 108L326 109L325 108M431 108L431 109L440 109L431 108z"/>
<path style="fill:#3a495b; stroke:none;" d="M363 164C373.218 163.752 376.383 150.033 380.673 142.001C383.451 136.799 392.204 128.72 397.3 125.735C399.892 124.217 407.793 126.469 407.793 130.101C407.794 133.518 402.422 135.564 400 137C403.401 142.493 419.859 136.601 419.794 147.17C419.751 154.095 405.042 153.673 404 163C419.263 163 433.168 164.331 447.09 158.245C449.99 156.976 453.056 157.717 455.142 154.837C457.242 151.938 459.623 137.584 457.879 134.495C455.484 130.253 446.889 128.655 449.368 122.015C451.955 115.085 461.278 116.143 467 114C459.115 108.131 445.405 108.508 436 108.925C401.232 110.468 374.132 131.093 363 164z"/>
<path style="fill:#63a9d6; stroke:none;" d="M441 108L441 109L450 109L441 108M294.333 109.667L294.667 110.333L294.333 109.667M424 109L424 110L427 110L424 109M452 109L452 110L456 110L452 109M420.667 110.333L421.333 110.667L420.667 110.333M457 110L457 111L460 111L457 110M335 111L334 114L335 111M416.667 111.333L417.333 111.667L416.667 111.333M462.667 111.333L463.333 111.667L462.667 111.333M413 112L414 113L413 112M465 112L466 113L465 112M410.667 113.333L411.333 113.667L410.667 113.333M443 163C460.627 161.621 464 169.783 464 186C473.046 181.106 473.437 188.444 481.039 191.242C485.013 192.705 489.24 190.072 493 189C492.678 196.507 494.217 201.78 494.888 209C495.803 218.839 491.674 227.586 505 230L502 234C532.565 210.554 520.771 158.284 498.83 134C488.996 123.116 475.879 112.499 461 115.522C457.167 116.301 453.259 115.998 450.438 119.228C443.54 127.127 455.416 129.917 457.647 135.274C458.908 138.3 457.332 146.715 456.656 150C454.91 158.479 445.702 155.487 443 163M297 114L298 115L297 114M333 114L334 115L333 114M407.667 114.333L408.333 114.667L407.667 114.333M310 115L311 116L310 115z"/>
<path style="fill:#f2f4f6; stroke:none;" d="M311.015 115.668C298.111 119.442 305.45 137.916 317.985 134.181C329.836 130.651 322.12 112.421 311.015 115.668z"/>
<path style="fill:#63a9d6; stroke:none;" d="M316 115L317 116L316 115M332 115L333 116L332 115M404.667 115.333L405.333 115.667L404.667 115.333M308 116L309 117L308 116M318 116L319 117L318 116M402.667 116.333L403.333 116.667L402.667 116.333M320 117L321 118L320 117M401 117L402 118L401 117M297 118L298 119L297 118M321 118L322 119L321 118M399 118L400 119L399 118M292 119L292 120L296 120L292 119M305 119L306 120L305 119M322 119L323 120L322 119M332 119L333 120L332 119M397 119L398 120L397 119M289 120L290 121L289 120M333 120L334 121L333 120M395 120L396 121L395 120M304 121L305 122L304 121M323 121L324 122L323 121M339 121L340 122L339 121M394 121L395 122L394 121M288 122L288 126L289 126L288 122M392 122L393 123L392 122M429 139L428 134C439.744 129.018 430.447 119.94 421.059 123.228C412.293 126.299 422.814 138.797 429 139M324 123L324 129L325 129L324 123M391 123L392 124L391 123M340 124L340 129L341 129L340 124M389 124L390 125L389 124M371 164L404 163C406.224 152.008 427.572 152.504 415.509 141.669C414.332 140.612 413.268 139.19 411.715 138.658C406.529 136.882 404.981 142.292 400 137C408.222 133.551 411.291 123.775 399.09 124.592C395.478 124.834 393.301 129.326 390.826 131.471C381.707 139.376 371.593 151.047 371 164M388 125L389 126L388 125M387 126L388 127L387 126M386 127L387 128L386 127M289 128L290 129L289 128M291.667 129.333L292.333 129.667L291.667 129.333M295.667 129.333L296.333 129.667L295.667 129.333M304 129L305 130L304 129M339 129L340 130L339 129M383 129L384 130L383 129M297 130L297 133L298 133L297 130M305 130L306 131L305 130M323 130L324 131L323 130M333 130L333 131L338 131L333 130M382 130L383 131L382 130M381 131L382 132L381 131M307 132L308 133L307 132M331 132L332 133L331 132M380 132L381 133L380 132M320 133L321 134L320 133M379 133L380 134L379 133M296 134L297 135L296 134M311.667 134.333L312.333 134.667L311.667 134.333M317.667 134.333L318.333 134.667L317.667 134.333M295 135L296 136L295 135M377 136L378 137L377 136M293.333 137.667L293.667 138.333L293.333 137.667M330 137L331 138L330 137M376 137L377 138L376 137M331 138L332 139L331 138M375 138L376 139L375 138M332 139L333 140L332 139M294 140L295 141L294 140M304.667 140.333L305.333 140.667L304.667 140.333M374 140L375 141L374 140M295 141L296 142L295 141M302 141L303 142L302 141M373 141L374 142L373 141M296 142L297 143L296 142M301 142L302 143L301 142M307 142L307 146L308 146L307 142M319 142L320 143L319 142M372 142L373 143L372 142M297 143L298 144L297 143M300 143L301 144L300 143M317 143L318 144L317 143M371 144L372 145L371 144M329 145L330 146L329 145M300 146L301 147L300 146M328 146L329 147L328 146M370 146L371 147L370 146M316 148L317 149L316 148M369 148L370 149L369 148M307 149L308 150L307 149M368.333 149.667L368.667 150.333L368.333 149.667M310 150L310 151L313 151L310 150M315 150L316 151L315 150M367.333 151.667L367.667 152.333L367.333 151.667M366 154L367 155L366 154M365.333 156.667L365.667 157.333L365.333 156.667M364 159L365 160L364 159M363.333 161.667L363.667 162.333L363.333 161.667z"/>
<path style="fill:#038bde; stroke:none;" d="M225 376L259 376C259 387.826 261.593 402.435 252.671 411.812C247.84 416.89 239.213 415.173 236 421C246.242 424.027 259.338 422 270 422L339 422C346.999 422 355.001 422.054 363 421.999C364.898 421.986 369.55 422.492 370.079 419.83C370.444 417.993 368.266 417.397 366.941 417.133C360.618 415.877 356.556 414.461 352.419 408.999C345.816 400.283 348 387.244 348 377L371 377C370.13 370.119 364.97 354.404 369.028 348.318C371.048 345.288 376.771 345.667 380 345.285C391.662 343.909 403.439 347.086 415 348C415 343.46 413.438 335.335 416.028 331.418C418.106 328.275 422.972 327.71 425.811 325.362C432.422 319.894 428.862 311.041 424.892 305C415.316 290.428 394.374 276.87 377 286.991C369.384 291.428 364.842 301.53 357 304.882C350.669 307.588 334.789 296.347 331.407 306.059C329.821 310.613 335.923 314.62 339 316.791C347.55 322.824 358.853 327.883 369 323L369 342L229 342L229 326C214.498 326 200.985 323.456 188 316.742C182.835 314.071 173.492 303.576 168 304.033C163.187 304.434 156.987 311.288 153 314L153 218C153 209.863 149.355 189.512 155.434 183.434C159.297 179.57 167.039 181 172 181L214 181L386 181L433 181C437.96 181 446.582 179.355 450.297 183.434C456.654 190.412 453 210.135 453 219L453 305C453 313.999 456.25 331.09 450.91 338.772C446.457 345.178 428.967 342 422 342L422 343C426.281 345.279 433.455 348.207 436.153 352.379C438.159 355.481 435.575 360.5 431.957 360.978C426.657 361.679 420.046 354.608 415 353L416 378C426.942 378 438.08 377.394 449 378.089C454.895 378.464 461.25 379.195 465.347 373.891C472.875 364.147 467.004 342.472 467 331C466.985 291.651 465 252.321 465 213C465 202.274 464.277 191.668 464.015 181C463.885 175.731 464.53 169.705 460.362 165.652C455.917 161.33 449.517 162.582 444 162.407C428.82 161.925 413.277 163 398 163C336.724 163 275.35 166 214 166C197.609 166 181.38 167 165 167C158.334 167 149.515 165.625 144.653 171.34C138.047 179.104 142 200.265 142 210L142 280C142 290.888 143.63 303.219 141.852 313.956C139.648 327.261 114.166 316.793 108.028 324.603C105.581 327.716 107 335.255 107 339C107 352.32 106.683 365.684 107.015 379C107.637 404.003 128.529 424.946 148 437.656C153.179 441.037 162.544 448.655 169 448.306C175.562 447.952 183.991 439.936 189 436.116C208.409 421.313 223.917 401.215 225 376z"/>
<path style="fill:#63a9d6; stroke:none;" d="M358 163L358 164L363 164L358 163M292 164L292 165L321 165L292 164M225 165L225 166L255 166L225 165M159 166L159 167L188 167L159 166M149.667 167.333L150.333 167.667L149.667 167.333M147 168L148 169L147 168M146 169L147 170L146 169M143 172L144 173L143 172M142.333 173.667L142.667 174.333L142.333 173.667M141 178L141 318L142 318L142 220C142 208.056 145.607 188.98 141 178M157 181L158 182L157 181z"/>
<path style="fill:#f2f4f6; stroke:none;" d="M153 313C157.459 311.076 163.407 304.282 168 304.191C173.902 304.075 183.448 314.415 189 317.191C202.259 323.821 215.472 325 230 325L229 342L368 342L368 324C350.274 329.57 335.078 314.67 325.454 301.791C322.745 298.166 324.192 294.595 320 292C281.782 349.298 188.67 299.335 212.229 236C230.398 187.155 295.29 180.624 323.301 224C336.502 244.443 331.113 263.426 326 285L359 305C366.407 294.485 376.264 285.636 389 283L389 280C384.516 277.857 377.664 267.65 380.096 262.259C382.965 255.9 393.997 258.907 397.695 262.547C405.818 270.541 391.971 276.827 395.175 282.451C396.718 285.159 404.255 286.357 407 288.093C416.303 293.978 426.877 303.849 429.516 315C431.884 325.004 407.906 331.519 418.318 340.106C423.282 344.201 448.457 344.403 451.258 337.891C455.119 328.914 452 312.735 452 303L452 220C452 211.769 455.859 189.857 450.258 183.514C446.636 179.413 437.865 181 433 181L386 181L214 181L172 181C167.114 181 159.265 179.54 155.514 183.434C149.386 189.796 153 209.678 153 218L153 313z"/>
<path style="fill:#63a9d6; stroke:none;" d="M447.667 181.333L448.333 181.667L447.667 181.333M155 182L156 183L155 182M450 182L451 183L450 182M154 183L155 184L154 183z"/>
<path style="fill:#3a495b; stroke:none;" d="M466 257C481.041 252.098 496.401 243.747 505 230C490.436 225.674 492.737 201.754 493 189C489.577 189.608 485.487 192.163 482.015 191.153C477.095 189.721 473.32 180.454 467.188 184.043C462.839 186.589 465 197.656 465 202C465 220.391 466 238.633 466 257z"/>
<path style="fill:#63a9d6; stroke:none;" d="M451 184L452 185L451 184M153.333 185.667L153.667 186.333L153.333 185.667M452 187L452 336L453 336L453 232C453 219.27 456.907 198.694 452 187z"/>
<path style="fill:#c0847b; stroke:none;" d="M265 194L265 195L277 195L265 194M258.667 195.333L259.333 195.667L258.667 195.333z"/>
<path style="fill:#3a495b; stroke:none;" d="M331 298L331 294C338.842 302.303 345.908 305.473 358 306C350.866 297.615 335.289 288.894 325 285C331.318 273.009 333.751 258.355 331.195 245C329.077 233.929 324.393 223.449 316.826 215.001C310.186 207.586 301.485 201.392 292 198.206C282.419 194.988 272.055 194.165 262 195.171C197.232 201.651 192.055 297.307 253 314.702C268.287 319.065 284.734 317.42 299 310.511C305.691 307.27 314.641 294.735 321.09 293.87C324.191 293.454 328.218 296.8 331 298z"/>
<path style="fill:#c0847b; stroke:none;" d="M281.667 195.333L282.333 195.667L281.667 195.333M254 196L255 197L254 196M286 196L287 197L286 196M250.667 197.333L251.333 197.667L250.667 197.333M289.667 197.333L290.333 197.667L289.667 197.333M248 198L249 199L248 198M293 198L294 199L293 198M246 199L247 200L246 199M295 199L296 200L295 199M243 200L244 201L243 200z"/>
<path style="fill:#63a9d6; stroke:none;" d="M263 200.439C253.679 201.895 244.673 205.226 237 210.785C191.75 243.568 222.309 320.259 278 311.561C287.097 310.14 295.452 307.111 303 301.791C349.628 268.928 320.336 191.484 263 200.439z"/>
<path style="fill:#c0847b; stroke:none;" d="M297 200L298 201L297 200M241 201L242 202L241 201M299 201L300 202L299 201M239 202L240 203L239 202M301 202L302 203L301 202M238 203L239 204L238 203M303 203L304 204L303 203M236 204L237 205L236 204M304 204L305 205L304 204M235 205L236 206L235 205M307 206L308 207L307 206M232 207L233 208L232 207M308 207L309 208L308 207M231 208L232 209L231 208z"/>
<path style="fill:#63a9d6; stroke:none;" d="M339 208L341 216L342 216L339 208z"/>
<path style="fill:#038bde; stroke:none;" d="M340 208L340 209L342 216L343 216L345 209L340 208z"/>
<path style="fill:#63a9d6; stroke:none;" d="M345 208L346 209L345 208z"/>
<path style="fill:#038bde; stroke:none;" d="M347 208L347 216L352 216L352 215L348 215L348 209L352 209L347 208z"/>
<path style="fill:#63a9d6; stroke:none;" d="M353 211L354 211L358 210L358 211L353 213L353 214L358 212L358 216L359 216L359 208L353 211z"/>
<path style="fill:#038bde; stroke:none;" d="M355 208L355 209L358 209L355 208M360 208L360 209L363 216L364 216L366 209L360 208z"/>
<path style="fill:#63a9d6; stroke:none;" d="M366 208L367 216L368 216L366 208z"/>
<path style="fill:#038bde; stroke:none;" d="M368 208L368 216L369 216L368 208z"/>
<path style="fill:#63a9d6; stroke:none;" d="M369 208L369 216L370 216L369 208z"/>
<path style="fill:#038bde; stroke:none;" d="M371 208L371 216L372 216L372 212L376 216L377 216L377 208L376 208L376 212L371 208z"/>
<path style="fill:#63a9d6; stroke:none;" d="M377 208L377 216L378 216L377 208M380 208L379 209L380 216L381 216L384 210L383 215L384 215L383 212L385 215L386 215L385 208L380 208z"/>
<path style="fill:#038bde; stroke:none;" d="M381 208L381 209L384 209L381 208z"/>
<path style="fill:#63a9d6; stroke:none;" d="M311 209L312 210L311 209M343 209L343 216L344 216L345 209L343 209M346 209L346 215L347 215L346 209M348 211L352 210L348 211z"/>
<path style="fill:#038bde; stroke:none;" d="M354 209L356 212L354 209M358 209L359 210L358 209z"/>
<path style="fill:#63a9d6; stroke:none;" d="M360.667 209.333L361.333 209.667L360.667 209.333M364.667 209.333L365.333 209.667L364.667 209.333M373 209L374 210L373 209M375 209L374 212L375 209z"/>
<path style="fill:#038bde; stroke:none;" d="M380 209L381 210L380 209M384 209L385 210L384 209z"/>
<path style="fill:#c0847b; stroke:none;" d="M312 210L313 211L312 210z"/>
<path style="fill:#f2f4f6; stroke:none;" d="M355 210L355 211L358 211L355 210z"/>
<path style="fill:#63a9d6; stroke:none;" d="M362 210L362 216L363 216L362 210z"/>
<path style="fill:#038bde; stroke:none;" d="M379 210L379 214L380 214L379 210z"/>
<path style="fill:#f2f4f6; stroke:none;" d="M381 210L382 215L383 215L384 210L381 210z"/>
<path style="fill:#c0847b; stroke:none;" d="M313 211L314 212L313 211z"/>
<path style="fill:#63a9d6; stroke:none;" d="M349 211L349 213L352 213L352 211L349 211z"/>
<path style="fill:#c0847b; stroke:none;" d="M314 212L315 213L314 212z"/>
<path style="fill:#038bde; stroke:none;" d="M356.667 212.333L357.333 212.667L356.667 212.333z"/>
<path style="fill:#63a9d6; stroke:none;" d="M372 212L372 216L373 216L374 212L372 212z"/>
<path style="fill:#038bde; stroke:none;" d="M383 212L381 215L381 216L385 216L383 212z"/>
<path style="fill:#c0847b; stroke:none;" d="M315 213L316 214L315 213z"/>
<path style="fill:#63a9d6; stroke:none;" d="M348 213L352 215L352 214L348 213z"/>
<path style="fill:#f2f4f6; stroke:none;" d="M355 213L355 215L357 215L357 213L355 213z"/>
<path style="fill:#038bde; stroke:none;" d="M358.333 213.667L358.667 214.333L358.333 213.667z"/>
<path style="fill:#63a9d6; stroke:none;" d="M374 213L375 214L374 213z"/>
<path style="fill:#c0847b; stroke:none;" d="M316 214L317 215L316 214z"/>
<path style="fill:#038bde; stroke:none;" d="M353 214L353 215L358 216L358 215L353 214M380 214L381 215L380 214z"/>
<path style="fill:#63a9d6; stroke:none;" d="M352 215L353 216L352 215M375 215L376 216L375 215M348 216L348 217L351 217L348 216M356 216L357 217L356 216M376 216L377 217L376 216M382 216L383 217L382 216z"/>
<path style="fill:#c0847b; stroke:none;" d="M222 217L223 218L222 217M221 218L222 219L221 218M319 218L320 219L319 218M320 219L321 220L320 219M219 221L220 222L219 221M218 222L219 223L218 222M322 222L323 223L322 222z"/>
<path style="fill:#63a9d6; stroke:none;" d="M339 222L339 225L340 225L339 222z"/>
<path style="fill:#3a495b; stroke:none;" d="M340 222L340 225L418 225L418 223L340 222z"/>
<path style="fill:#63a9d6; stroke:none;" d="M351 222L351 223L399 223L418 225C419.784 220.268 406.036 222 403 222L351 222z"/>
<path style="fill:#c0847b; stroke:none;" d="M217 224L218 225L217 224M323 224L324 225L323 224z"/>
<path style="fill:#63a9d6; stroke:none;" d="M352 224L352 225L404 225L387 224L352 224M324 225L325 226L324 225z"/>
<path style="fill:#c0847b; stroke:none;" d="M216 226L217 227L216 226M325 227L326 228L325 227M215 228L216 229L215 228z"/>
<path style="fill:#63a9d6; stroke:none;" d="M339 228L339 232L340 232L342 229L339 228M379 228L379 232L380 232L382 229L379 228z"/>
<path style="fill:#c0847b; stroke:none;" d="M326 229L327 230L326 229z"/>
<path style="fill:#038bde; stroke:none;" d="M340 232C348.209 230.448 356.659 230.981 365 231C368.488 231.008 373.116 233.039 374 229C366.185 231.102 357.117 229 349 229C345.346 229 340.904 227.779 340 232z"/>
<path style="fill:#63a9d6; stroke:none;" d="M363 229L363 230L373 230L363 229M374 229L374 232L375 232L374 229z"/>
<path style="fill:#038bde; stroke:none;" d="M380 232C388.5 230.393 397.359 230.92 406 231C409.598 231.033 414.069 233.323 415 229C406.456 230.615 397.711 229 389 229C385.346 229 380.904 227.779 380 232z"/>
<path style="fill:#63a9d6; stroke:none;" d="M403 229L403 230L413 230L403 229z"/>
<path style="fill:#c0847b; stroke:none;" d="M214 230L215 231L214 230z"/>
<path style="fill:#3a495b; stroke:none;" d="M261 230L261 231L266 237C252.208 243.139 265.196 251.293 274.995 248.427C284.083 245.77 279.035 239.128 273 237L277 230L269.891 236.079L261 230z"/>
<path style="fill:#038bde; stroke:none;" d="M262 231L263 232L262 231z"/>
<path style="fill:#c0847b; stroke:none;" d="M327.333 231.667L327.667 232.333L327.333 231.667z"/>
<path style="fill:#63a9d6; stroke:none;" d="M342 231L342 232L372 232L342 231M382 231L382 232L412 232L382 231z"/>
<path style="fill:#c0847b; stroke:none;" d="M213 232L214 233L213 232z"/>
<path style="fill:#038bde; stroke:none;" d="M263 232L264 233L263 232M264 233L265 234L264 233z"/>
<path style="fill:#c0847b; stroke:none;" d="M328 234L329 235L328 234M212 235L213 236L212 235z"/>
<path style="fill:#038bde; stroke:none;" d="M265 235L266 236L265 235M273 235L274 236L273 235z"/>
<path style="fill:#c0847b; stroke:none;" d="M339 236L339 237L353 237L339 236z"/>
<path style="fill:#63a9d6; stroke:none;" d="M379 236L379 240C383.972 240 399.813 242.539 401 237L400 237L380 239L380 237L385 237L379 236z"/>
<path style="fill:#c0847b; stroke:none;" d="M211.333 237.667L211.667 238.333L211.333 237.667z"/>
<path style="fill:#038bde; stroke:none;" d="M274 237L275 238L274 237z"/>
<path style="fill:#c0847b; stroke:none;" d="M329 237L330 238L329 237z"/>
<path style="fill:#3a495b; stroke:none;" d="M339 240L374 239L374 237L348 237C344.346 237 339.904 235.779 339 240z"/>
<path style="fill:#c0847b; stroke:none;" d="M374 237C366.88 242.394 348.825 239 340 239L340 240L367 240C369.572 239.999 375.459 240.871 374 237z"/>
<path style="fill:#3a495b; stroke:none;" d="M380 237L380 239C385.249 239 396.387 241.135 400 237L380 237z"/>
<path style="fill:#63a9d6; stroke:none;" d="M394 237L394 238L397 238L394 237M499 237L500 238L499 237z"/>
<path style="fill:#038bde; stroke:none;" d="M262 238L263 239L262 238z"/>
<path style="fill:#63a9d6; stroke:none;" d="M498 238L499 239L498 238z"/>
<path style="fill:#038bde; stroke:none;" d="M260 239L261 240L260 239M259 240L260 241L259 240z"/>
<path style="fill:#c0847b; stroke:none;" d="M330.333 240.667L330.667 241.333L330.333 240.667M210.333 241.667L210.667 242.333L210.333 241.667z"/>
<path style="fill:#038bde; stroke:none;" d="M280 241L281 242L280 241z"/>
<path style="fill:#63a9d6; stroke:none;" d="M494 241L495 242L494 241M493 242L494 243L493 242z"/>
<path style="fill:#038bde; stroke:none;" d="M258 243L255 246C256.673 253.045 254.604 260.653 260.394 266.316C267.326 273.097 278.421 270.801 282.17 261.961C284.841 255.663 283.451 250.347 282 244C273.467 249.438 265.376 251.351 258 243z"/>
<path style="fill:#63a9d6; stroke:none;" d="M339 243L339 247L386 247L386 246L354 246C348.588 246 343.166 246.977 339 243z"/>
<path style="fill:#038bde; stroke:none;" d="M340 243C340.982 247.583 347.12 246 351 246L386 246L386 244L340 243z"/>
<path style="fill:#63a9d6; stroke:none;" d="M342 243L342 244L370 244L342 243M492 243L493 244L492 243z"/>
<path style="fill:#038bde; stroke:none;" d="M251 244L252 245L251 244M288 244L289 245L288 244z"/>
<path style="fill:#63a9d6; stroke:none;" d="M491 244L492 245L491 244z"/>
<path style="fill:#3a495b; stroke:none;" d="M251 245L251 246L255 247L255 246L251 245z"/>
<path style="fill:#038bde; stroke:none;" d="M253 245L254 246L253 245M286 245L287 246L286 245z"/>
<path style="fill:#3a495b; stroke:none;" d="M287.667 245.333L288.333 245.667L287.667 245.333z"/>
<path style="fill:#c0847b; stroke:none;" d="M331.333 245.667L331.667 246.333L331.333 245.667z"/>
<path style="fill:#63a9d6; stroke:none;" d="M489 245L490 246L489 245z"/>
<path style="fill:#038bde; stroke:none;" d="M284 246L285 247L284 246z"/>
<path style="fill:#3a495b; stroke:none;" d="M285.667 246.333L286.333 246.667L285.667 246.333z"/>
<path style="fill:#63a9d6; stroke:none;" d="M488 246L489 247L488 246z"/>
<path style="fill:#c0847b; stroke:none;" d="M209 247L209 250L210 250L209 247z"/>
<path style="fill:#3a495b; stroke:none;" d="M255 247L256 248L255 247M283.667 247.333L284.333 247.667L283.667 247.333z"/>
<path style="fill:#63a9d6; stroke:none;" d="M486 247L487 248L486 247M485 248L486 249L485 248M483 249L484 250L483 249M481 250L482 251L481 250M479.667 251.333L480.333 251.667L479.667 251.333M478 252L479 253L478 252M475.667 253.333L476.333 253.667L475.667 253.333M473 254L474 255L473 254M470.667 255.333L471.333 255.667L470.667 255.333z"/>
<path style="fill:#038bde; stroke:none;" d="M248 257L248 258L253 257L248 257z"/>
<path style="fill:#3a495b; stroke:none;" d="M253.667 256.333L254.333 256.667L253.667 256.333M284 256L284 257L288 257L284 256z"/>
<path style="fill:#038bde; stroke:none;" d="M288 256L292 258L288 256z"/>
<path style="fill:#63a9d6; stroke:none;" d="M332 256L333 257L332 256M467.667 256.333L468.333 256.667L467.667 256.333z"/>
<path style="fill:#c0847b; stroke:none;" d="M385 258L384 260L385 258z"/>
<path style="fill:#3a495b; stroke:none;" d="M386.004 258.819C372.859 261.131 386.642 280.277 393.024 279.538C406.4 277.989 399.746 256.401 386.004 258.819z"/>
<path style="fill:#c0847b; stroke:none;" d="M389 258L390 259L389 258M382 259L383 260L382 259M391 259L392 260L391 259M393 259L394 260L393 259M394.667 260.333L395.333 260.667L394.667 260.333M379 261L380 262L379 261M209 262L209 265L210 265L209 262M398 262L399 263L398 262z"/>
<path style="fill:#63a9d6; stroke:none;" d="M209 265L210 266L209 265z"/>
<path style="fill:#3a495b; stroke:none;" d="M258 265L259 266L258 265M281 265L281 266L287 269L287 268L281 265z"/>
<path style="fill:#038bde; stroke:none;" d="M282 265L283 266L282 265z"/>
<path style="fill:#c0847b; stroke:none;" d="M331.333 265.667L331.667 266.333L331.333 265.667M400 265L401 266L400 265z"/>
<path style="fill:#3a495b; stroke:none;" d="M253 268L253 269L258 267L253 268z"/>
<path style="fill:#038bde; stroke:none;" d="M254 267L255 268L254 267M256 267L257 268L256 267M283 267L284 268L283 267z"/>
<path style="fill:#c0847b; stroke:none;" d="M380 267L381 268L380 267z"/>
<path style="fill:#038bde; stroke:none;" d="M285 268L286 269L285 268M287.333 268.667L287.667 269.333L287.333 268.667z"/>
<path style="fill:#c0847b; stroke:none;" d="M382 268C382.052 273.785 382.91 278.248 389 280L389 284L395 284L394 280L382 268M210 269L211 270L210 269M330 270L331 271L330 270M400 270L401 271L400 270M399.333 272.667L399.667 273.333L399.333 272.667M211 273L212 274L211 273M329.333 273.667L329.667 274.333L329.333 273.667z"/>
<path style="fill:#63a9d6; stroke:none;" d="M466 274L466 294L467 294L466 274z"/>
<path style="fill:#c0847b; stroke:none;" d="M398 275L399 276L398 275M212 276L213 277L212 276M328.333 276.667L328.667 277.333L328.333 276.667M397 277L398 278L397 277M213 278L214 279L213 278M396 278L397 279L396 278z"/>
<path style="fill:#63a9d6; stroke:none;" d="M213 279L214 280L213 279z"/>
<path style="fill:#c0847b; stroke:none;" d="M327 279L328 280L327 279M214 281L215 282L214 281M326 282L327 283L326 282M215 283L216 284L215 283z"/>
<path style="fill:#63a9d6; stroke:none;" d="M386 283L386 284L389 284L386 283M391 283L392 284L391 283z"/>
<path style="fill:#c0847b; stroke:none;" d="M325 284L326 285L325 284z"/>
<path style="fill:#63a9d6; stroke:none;" d="M382.667 284.333L383.333 284.667L382.667 284.333M398.667 284.333L399.333 284.667L398.667 284.333z"/>
<path style="fill:#c0847b; stroke:none;" d="M216 285L217 286L216 285z"/>
<path style="fill:#63a9d6; stroke:none;" d="M379 285L380 286L379 285M401.667 285.333L402.333 285.667L401.667 285.333z"/>
<path style="fill:#c0847b; stroke:none;" d="M217 286L218 287L217 286M328 286L329 287L328 286z"/>
<path style="fill:#63a9d6; stroke:none;" d="M377 286L378 287L377 286M404 286L405 287L404 286z"/>
<path style="fill:#c0847b; stroke:none;" d="M330 287L331 288L330 287z"/>
<path style="fill:#63a9d6; stroke:none;" d="M406 287L407 288L406 287z"/>
<path style="fill:#c0847b; stroke:none;" d="M218 288L219 289L218 288M331 288L332 289L331 288z"/>
<path style="fill:#63a9d6; stroke:none;" d="M374 288L375 289L374 288M407 288L408 289L407 288z"/>
<path style="fill:#c0847b; stroke:none;" d="M333 289L334 290L333 289z"/>
<path style="fill:#63a9d6; stroke:none;" d="M373 289L374 290L373 289M409 289L410 290L409 289M219 290L220 291L219 290M372 290L373 291L372 290M410 290L411 291L410 290z"/>
<path style="fill:#c0847b; stroke:none;" d="M220 291L221 292L220 291M336 291L337 292L336 291M321 292L322 293L321 292M338 292L339 293L338 292z"/>
<path style="fill:#63a9d6; stroke:none;" d="M413 292L414 293L413 292z"/>
<path style="fill:#c0847b; stroke:none;" d="M319 293L320 294L319 293z"/>
<path style="fill:#63a9d6; stroke:none;" d="M414 293L415 294L414 293z"/>
<path style="fill:#c0847b; stroke:none;" d="M318 294L319 295L318 294M324 294C322.474 303.45 328.246 305.416 336 302L331 294L331 298L324 294M341 294L342 295L341 294z"/>
<path style="fill:#63a9d6; stroke:none;" d="M415 294L416 295L415 294z"/>
<path style="fill:#c0847b; stroke:none;" d="M223 295L224 296L223 295M343 295L344 296L343 295z"/>
<path style="fill:#63a9d6; stroke:none;" d="M416 295L417 296L416 295M467 301L467 318C490.95 312.1 516.697 315.799 541 316L541 318L467 319L467 341C468.112 338.351 467.392 334.823 469.028 332.433C477.652 319.836 491.623 337.674 499.015 338.852C515.158 341.425 543.698 341.162 557.996 332.518C574.675 322.434 559.88 303.042 547 298.229C521.185 288.584 493.014 298.93 467 301z"/>
<path style="fill:#c0847b; stroke:none;" d="M224 296L225 297L224 296M344 296L345 297L344 296z"/>
<path style="fill:#63a9d6; stroke:none;" d="M417 296L418 297L417 296z"/>
<path style="fill:#c0847b; stroke:none;" d="M346 297L347 298L346 297z"/>
<path style="fill:#63a9d6; stroke:none;" d="M418 297L419 298L418 297M315 298L316 299L315 298M364 298L365 299L364 298M419 298L420 299L419 298z"/>
<path style="fill:#c0847b; stroke:none;" d="M349 299L350 300L349 299z"/>
<path style="fill:#63a9d6; stroke:none;" d="M363 299L364 300L363 299M420 299L421 300L420 299z"/>
<path style="fill:#c0847b; stroke:none;" d="M228 300L229 301L228 300M351 300L352 301L351 300z"/>
<path style="fill:#63a9d6; stroke:none;" d="M362 300L363 301L362 300M421 300L422 301L421 300z"/>
<path style="fill:#c0847b; stroke:none;" d="M229 301L230 302L229 301M352 301L353 302L352 301z"/>
<path style="fill:#63a9d6; stroke:none;" d="M361 301L362 302L361 301M422 301L423 302L422 301z"/>
<path style="fill:#c0847b; stroke:none;" d="M230 302L231 303L230 302M354 302L355 303L354 302z"/>
<path style="fill:#63a9d6; stroke:none;" d="M360 302L361 303L360 302M166 303L167 304L166 303M169 303L170 304L169 303z"/>
<path style="fill:#c0847b; stroke:none;" d="M231 303L232 304L231 303M309 303L310 304L309 303z"/>
<path style="fill:#63a9d6; stroke:none;" d="M332 303L333 304L332 303M359 303L360 304L359 303M165 304L166 305L165 304z"/>
<path style="fill:#c0847b; stroke:none;" d="M308 304L309 305L308 304z"/>
<path style="fill:#63a9d6; stroke:none;" d="M331 304L332 305L331 304z"/>
<path style="fill:#c0847b; stroke:none;" d="M357 304L358 305L357 304z"/>
<path style="fill:#63a9d6; stroke:none;" d="M424 304L425 305L424 304M164 305L165 306L164 305z"/>
<path style="fill:#c0847b; stroke:none;" d="M234 305L235 306L234 305z"/>
<path style="fill:#63a9d6; stroke:none;" d="M330.333 305.667L330.667 306.333L330.333 305.667M163 306L164 307L163 306z"/>
<path style="fill:#c0847b; stroke:none;" d="M235 306L236 307L235 306M305 306L306 307L305 306z"/>
<path style="fill:#63a9d6; stroke:none;" d="M162 307L163 308L162 307M174 307L175 308L174 307z"/>
<path style="fill:#c0847b; stroke:none;" d="M237 307L238 308L237 307M304 307L305 308L304 307z"/>
<path style="fill:#63a9d6; stroke:none;" d="M426 307L427 308L426 307M175 308L176 309L175 308z"/>
<path style="fill:#c0847b; stroke:none;" d="M238 308L239 309L238 308M302 308L303 309L302 308z"/>
<path style="fill:#63a9d6; stroke:none;" d="M330 308L331 309L330 308M159 309L160 310L159 309M176 309L177 310L176 309z"/>
<path style="fill:#c0847b; stroke:none;" d="M240 309L241 310L240 309M301 309L302 310L301 309z"/>
<path style="fill:#63a9d6; stroke:none;" d="M427 309L428 310L427 309M158 310L159 311L158 310M177 310L178 311L177 310z"/>
<path style="fill:#c0847b; stroke:none;" d="M242 310L243 311L242 310M299 310L300 311L299 310z"/>
<path style="fill:#63a9d6; stroke:none;" d="M331 310L332 311L331 310M156 311L157 312L156 311M179 311L180 312L179 311z"/>
<path style="fill:#c0847b; stroke:none;" d="M244 311L245 312L244 311M296 311L297 312L296 311z"/>
<path style="fill:#63a9d6; stroke:none;" d="M332 311L333 312L332 311M428.333 311.667L428.667 312.333L428.333 311.667M154.667 312.333L155.333 312.667L154.667 312.333z"/>
<path style="fill:#3a495b; stroke:none;" d="M166 312L162 317L166 312M169 312L173 316L169 312z"/>
<path style="fill:#63a9d6; stroke:none;" d="M180 312L181 313L180 312z"/>
<path style="fill:#c0847b; stroke:none;" d="M246 312L247 313L246 312M294 312L295 313L294 312z"/>
<path style="fill:#63a9d6; stroke:none;" d="M333 312L334 313L333 312M153 313L154 314L153 313M182 313L183 314L182 313z"/>
<path style="fill:#c0847b; stroke:none;" d="M248 313L249 314L248 313M292 313L293 314L292 313z"/>
<path style="fill:#63a9d6; stroke:none;" d="M334 313L335 314L334 313M183.667 314.333L184.333 314.667L183.667 314.333z"/>
<path style="fill:#c0847b; stroke:none;" d="M251.667 314.333L252.333 314.667L251.667 314.333M288.667 314.333L289.333 314.667L288.667 314.333z"/>
<path style="fill:#63a9d6; stroke:none;" d="M335 314L336 315L335 314M429.333 314.667L429.667 315.333L429.333 314.667M185 315L186 316L185 315z"/>
<path style="fill:#c0847b; stroke:none;" d="M255 315L256 316L255 315M285 315L286 316L285 315z"/>
<path style="fill:#63a9d6; stroke:none;" d="M337 315L338 316L337 315z"/>
<path style="fill:#f2f4f6; stroke:none;" d="M467 318L467 319L541 318L541 316C517.602 315.517 489.718 310.816 467 318z"/>
<path style="fill:#63a9d6; stroke:none;" d="M187 316L188 317L187 316z"/>
<path style="fill:#c0847b; stroke:none;" d="M259 316L259 317L262 317L259 316M280.667 316.333L281.333 316.667L280.667 316.333z"/>
<path style="fill:#63a9d6; stroke:none;" d="M338 316L339 317L338 316z"/>
<path style="fill:#3a495b; stroke:none;" d="M160 317L159 319L160 317M175 317L181 322L181 321L175 317z"/>
<path style="fill:#63a9d6; stroke:none;" d="M189 317L190 318L189 317z"/>
<path style="fill:#c0847b; stroke:none;" d="M266 317L266 318L276 318L266 317z"/>
<path style="fill:#63a9d6; stroke:none;" d="M138.667 318.333L139.333 318.667L138.667 318.333M191 318L192 319L191 318M341 318L342 319L341 318M430.333 318.667L430.667 319.333L430.333 318.667M134 319L134 320L137 320L134 319z"/>
<path style="fill:#3a495b; stroke:none;" d="M157 319L153 321L153 322L158 320L157 319z"/>
<path style="fill:#63a9d6; stroke:none;" d="M193.667 319.333L194.333 319.667L193.667 319.333M343 319L344 320L343 319M108 322L108 323L126 322C120.555 318.28 113.913 320.648 108 322M129 320L129 321L132 321L129 320M195.667 320.333L196.333 320.667L195.667 320.333M344 320L345 321L344 320M198.667 321.333L199.333 321.667L198.667 321.333M346 321L347 322L346 321M429 321L430 322L429 321z"/>
<path style="fill:#3a495b; stroke:none;" d="M151 322L152 323L151 322M182 322L182 323L186 325L186 324L182 322z"/>
<path style="fill:#63a9d6; stroke:none;" d="M202.667 322.333L203.333 322.667L202.667 322.333M348.667 322.333L349.333 322.667L348.667 322.333M428 322L429 323L428 322M107 323L108 324L107 323z"/>
<path style="fill:#3a495b; stroke:none;" d="M148.667 323.333L149.333 323.667L148.667 323.333z"/>
<path style="fill:#63a9d6; stroke:none;" d="M205.667 323.333L206.333 323.667L205.667 323.333M351 323L352 324L351 323M368 323L368 342L369 342L368 323M25 359C44.954 359.165 65.1687 360.774 85 363.155C90.9856 363.874 102.526 363.58 106 369C100.251 367.584 92.2856 365.06 87.0201 368.763C81.0426 372.966 83.3664 379.72 81.9846 386C80.8177 391.303 76.3985 395.854 75.6543 401C74.8028 406.889 83.4686 417.038 88.0394 420.005C98.7325 426.947 112.746 418.515 124 417C117.513 406.487 110.832 397.26 107.899 385C103.44 366.364 107 343.147 107 324C95.7064 326.572 87.9426 337.609 77 341.451C58.4462 347.964 35.0078 332.983 25 359z"/>
<path style="fill:#3a495b; stroke:none;" d="M145.667 324.333L146.333 324.667L145.667 324.333z"/>
<path style="fill:#63a9d6; stroke:none;" d="M209 324L209 325L212 325L209 324M354 324L355 325L354 324M366 324L367 325L366 324z"/>
<path style="fill:#3a495b; stroke:none;" d="M142.667 325.333L143.333 325.667L142.667 325.333M187 325L188 326L187 325z"/>
<path style="fill:#63a9d6; stroke:none;" d="M215 325L215 326L229 326L229 330L230 330L230 325L215 325M359 325L359 326L364 326L359 325z"/>
<path style="fill:#3a495b; stroke:none;" d="M138.667 326.333L139.333 326.667L138.667 326.333M189.667 326.333L190.333 326.667L189.667 326.333z"/>
<path style="fill:#63a9d6; stroke:none;" d="M424 326L425 327L424 326z"/>
<path style="fill:#3a495b; stroke:none;" d="M132 327L132 328L136 328L132 327M192 327L193 328L192 327z"/>
<path style="fill:#63a9d6; stroke:none;" d="M422.667 327.333L423.333 327.667L422.667 327.333z"/>
<path style="fill:#3a495b; stroke:none;" d="M121 328L121 329L130 329L121 328M194 328L194 329L197 329L194 328z"/>
<path style="fill:#63a9d6; stroke:none;" d="M420 328L421 329L420 328z"/>
<path style="fill:#3a495b; stroke:none;" d="M114 332L118 330L114 332M199 329L199 330L202 330L199 329z"/>
<path style="fill:#63a9d6; stroke:none;" d="M417 329L418 330L417 329z"/>
<path style="fill:#3a495b; stroke:none;" d="M204.667 330.333L205.333 330.667L204.667 330.333z"/>
<path style="fill:#63a9d6; stroke:none;" d="M415 330L415 339L416 339L415 330z"/>
<path style="fill:#3a495b; stroke:none;" d="M210 331L210 332L218 332L210 331M219 332L221 343L222 343L219 332M113 333L113 376L114 376C114 363.781 117.71 344.226 113 333z"/>
<path style="fill:#63a9d6; stroke:none;" d="M451 338L452 339L451 338z"/>
<path style="fill:#3a495b; stroke:none;" d="M415 339L415 348C403.527 346.542 391.619 344.064 380 345.17C377.153 345.441 370.947 345.178 369.028 347.603C365.742 351.755 368.888 363.186 369.579 368C371.971 384.65 374.48 401.394 377.247 418C378.422 425.055 378.13 433.18 385 437L375 443L375 444C404.956 452.855 394 403.181 394 386L395 386C395.1 398.059 398.195 410.091 399.87 422C400.765 428.371 400.959 434.506 407 438L398 443L398 445C409.624 448.436 416.365 443.001 417.37 430.999C419.508 405.495 415 378.631 415 353C419.945 355.339 425.449 360.928 430.985 361.434C435.763 361.87 439.175 355.335 436.242 351.609C431.761 345.915 421.551 341.728 415 339z"/>
<path style="fill:#c0847b; stroke:none;" d="M416 339L417 340L416 339M418 340L419 341L418 340z"/>
<path style="fill:#63a9d6; stroke:none;" d="M450 340L451 341L450 340M448 341L449 342L448 341z"/>
<path style="fill:#3a495b; stroke:none;" d="M152 349C151.203 355.077 145.15 357.762 140 360C144.796 368.623 137.491 383.218 143.742 390.566C147.7 395.218 159.512 393 165 393C171.271 393 185.532 395.633 190.486 391.258C194.736 387.505 193 378.049 193 373C193 351.232 171.428 335.208 152 349z"/>
<path style="fill:#038bde; stroke:none;" d="M158 350L159 352L155 356L180 356C177.764 351.402 175.386 348.433 170 349L171 347L158 350z"/>
<path style="fill:#3a495b; stroke:none;" d="M172 349L175 352L172 349M161 350L161 351L164 351L161 350M166 351L166 352L172 355L166 351M148 353L147 355L148 353M176 353L178 355L176 353M220 353L220 360L221 360L220 353M138 361L137 363L138 361z"/>
<path style="fill:#63a9d6; stroke:none;" d="M86 366C71.1839 362.471 54.1859 362 39 362C35.674 362 25.3909 360.251 24.0316 364.318C21.1964 372.8 33.75 383.117 41 383.892C55.8825 385.482 76.5495 377.608 86 366M468 363L468 367L469 367L468 363z"/>
<path style="fill:#3a495b; stroke:none;" d="M136 364L136 393L137 393L136 364z"/>
<path style="fill:#038bde; stroke:none;" d="M166 364C165.999 368.854 162.247 375.904 163.086 379.956C163.911 383.945 169.912 385.018 171.339 380.852C172.675 376.949 169.001 368.699 169 364L166 364z"/>
<path style="fill:#3a495b; stroke:none;" d="M219 365L219 370L220 370L219 365z"/>
<path style="fill:#63a9d6; stroke:none;" d="M467.333 370.667L467.667 371.333L467.333 370.667M466 372L467 373L466 372M46 386L62 392.714L73 400C78.0737 392.307 81.5439 384.356 80 375C68.3936 379.224 58.8477 385.735 46 386z"/>
<path style="fill:#3a495b; stroke:none;" d="M218 375L218 378L219 378L218 375z"/>
<path style="fill:#63a9d6; stroke:none;" d="M464 375L465 376L464 375M225.333 376.667L225.667 377.333L225.333 376.667M247 376L247 377L259 377L247 376M348 377L348 401L349 401L349 378L371 378L348 377M461 377L462 378L461 377z"/>
<path style="fill:#c0847b; stroke:none;" d="M371.333 378.667L371.667 379.333L371.333 378.667z"/>
<path style="fill:#63a9d6; stroke:none;" d="M415 378L415 379L453 379C442.964 374.789 425.911 378 415 378M456 378L456 379L460 379L456 378z"/>
<path style="fill:#c0847b; stroke:none;" d="M415.333 379.667L415.667 380.333L415.333 379.667z"/>
<path style="fill:#3a495b; stroke:none;" d="M114 380L114 384L115 384L114 380z"/>
<path style="fill:#63a9d6; stroke:none;" d="M371 380L372 381L371 380z"/>
<path style="fill:#3a495b; stroke:none;" d="M217 381L217 384L218 384L217 381z"/>
<path style="fill:#63a9d6; stroke:none;" d="M224 381L224 384L225 384L224 381z"/>
<path style="fill:#3a495b; stroke:none;" d="M115.333 385.667L115.667 386.333L115.333 385.667z"/>
<path style="fill:#c0847b; stroke:none;" d="M372.333 385.667L372.667 386.333L372.333 385.667z"/>
<path style="fill:#3a495b; stroke:none;" d="M216.333 386.667L216.667 387.333L216.333 386.667z"/>
<path style="fill:#c0847b; stroke:none;" d="M394 386L394 390L395 390L394 386z"/>
<path style="fill:#63a9d6; stroke:none;" d="M223.333 387.667L223.667 388.333L223.333 387.667M372 387L373 388L372 387z"/>
<path style="fill:#3a495b; stroke:none;" d="M116.333 389.667L116.667 390.333L116.333 389.667M215.333 390.667L215.667 391.333L215.333 390.667z"/>
<path style="fill:#f2f4f6; stroke:none;" d="M394 390L394 393L395 393L394 390z"/>
<path style="fill:#63a9d6; stroke:none;" d="M222.333 391.667L222.667 392.333L222.333 391.667z"/>
<path style="fill:#3a495b; stroke:none;" d="M117 392L118 393L117 392z"/>
<path style="fill:#c0847b; stroke:none;" d="M373.333 392.667L373.667 393.333L373.333 392.667z"/>
<path style="fill:#3a495b; stroke:none;" d="M214 393L213 397L214 397L214 393z"/>
<path style="fill:#c0847b; stroke:none;" d="M394 393L394 397L395 397L396 393L394 393M416.333 393.667L416.667 394.333L416.333 393.667z"/>
<path style="fill:#3a495b; stroke:none;" d="M118 394L120 399L121 399L118 394M137 394L140 397L137 394M187 394L184 396L184 397L187 394z"/>
<path style="fill:#63a9d6; stroke:none;" d="M373 394L374 395L373 394M221 395L222 396L221 395M416.333 395.667L416.667 396.333L416.333 395.667M395 396L396 397L395 396z"/>
<path style="fill:#3a495b; stroke:none;" d="M142 397L142 398L183 398C172.25 393.489 153.696 397 142 397z"/>
<path style="fill:#63a9d6; stroke:none;" d="M220.333 397.667L220.667 398.333L220.333 397.667M394 397L395 398L394 397z"/>
<path style="fill:#c0847b; stroke:none;" d="M416 397L416 407L417 407L416 397z"/>
<path style="fill:#3a495b; stroke:none;" d="M212 398L213 399L212 398z"/>
<path style="fill:#c0847b; stroke:none;" d="M394 398L394 406L395 406L394 398z"/>
<path style="fill:#63a9d6; stroke:none;" d="M258 399L258 402L259 402L258 399z"/>
<path style="fill:#c0847b; stroke:none;" d="M374.333 399.667L374.667 400.333L374.333 399.667z"/>
<path style="fill:#3a495b; stroke:none;" d="M121 400L122 401L121 400M211 400L212 401L211 400z"/>
<path style="fill:#63a9d6; stroke:none;" d="M219 400L220 401L219 400z"/>
<path style="fill:#c0847b; stroke:none;" d="M396 400L396 403L397 403L396 400z"/>
<path style="fill:#63a9d6; stroke:none;" d="M374 401L375 402L374 401z"/>
<path style="fill:#3a495b; stroke:none;" d="M122 402L126 407L122 402M210 402L209 404L210 402z"/>
<path style="fill:#63a9d6; stroke:none;" d="M218 402L219 403L218 402M349 403L350 404L349 403M396 403L397 404L396 403M217 404L218 405L217 404M257 404L258 405L257 404z"/>
<path style="fill:#3a495b; stroke:none;" d="M208 405L207 407L208 405z"/>
<path style="fill:#63a9d6; stroke:none;" d="M216 405L217 406L216 405M350.333 405.667L350.667 406.333L350.333 405.667M256 406L257 407L256 406z"/>
<path style="fill:#c0847b; stroke:none;" d="M375.333 406.667L375.667 407.333L375.333 406.667z"/>
<path style="fill:#63a9d6; stroke:none;" d="M215 407L216 408L215 407z"/>
<path style="fill:#c0847b; stroke:none;" d="M397.333 407.667L397.667 408.333L397.333 407.667z"/>
<path style="fill:#3a495b; stroke:none;" d="M126 408L138 421L126 408M206 408L190 426C195.503 422.124 204.747 414.904 206 408z"/>
<path style="fill:#63a9d6; stroke:none;" d="M255 408L256 409L255 408M351 408L352 409L351 408M375 408L376 409L375 408M214 409L215 410L214 409M254 409L255 410L254 409M352 409L353 410L352 409M353 410L354 411L353 410M213 411L214 412L213 411M253 411L254 412L253 411M354 411L355 412L354 411M212 412L213 413L212 412M252 412L253 413L252 412M355 412L356 413L355 412M211 413L212 414L211 413M250.667 413.333L251.333 413.667L250.667 413.333M356 413L357 414L356 413z"/>
<path style="fill:#c0847b; stroke:none;" d="M376.333 413.667L376.667 414.333L376.333 413.667M398 413L398 416L399 416L398 413z"/>
<path style="fill:#63a9d6; stroke:none;" d="M249 414L250 415L249 414M357 414L358 415L357 414M210 415L211 416L210 415M247.667 415.333L248.333 415.667L247.667 415.333M358.667 415.333L359.333 415.667L358.667 415.333M209 416L210 417L209 416M238 416L238 417L246 417L238 416M361 416L361 417L369 417L361 416M124 417L125 418L124 417M208 417L209 418L208 417M237 417L238 418L237 417M370 417L371 418L370 417M207 418L208 419L207 418M236 418L237 419L236 418z"/>
<path style="fill:#c0847b; stroke:none;" d="M377.333 419.667L377.667 420.333L377.333 419.667z"/>
<path style="fill:#63a9d6; stroke:none;" d="M395.333 419.667L395.667 420.333L395.333 419.667z"/>
<path style="fill:#c0847b; stroke:none;" d="M399 419L399 422L400 422L399 419M417 419L417 430L418 430L417 419z"/>
<path style="fill:#63a9d6; stroke:none;" d="M236 421L237 422L236 421M370 421L371 422L370 421M377 421L378 422L377 421z"/>
<path style="fill:#c0847b; stroke:none;" d="M395 421L395 429L396 429L395 421z"/>
<path style="fill:#3a495b; stroke:none;" d="M140 422L144 426L140 422z"/>
<path style="fill:#63a9d6; stroke:none;" d="M238 422L238 423L370 423C359.496 418.592 341.42 422 330 422L238 422z"/>
<path style="fill:#c0847b; stroke:none;" d="M378.333 425.667L378.667 426.333L378.333 425.667z"/>
<path style="fill:#3a495b; stroke:none;" d="M145 426L147 428L145 426z"/>
<path style="fill:#c0847b; stroke:none;" d="M400 426L400 429L401 429L400 426z"/>
<path style="fill:#63a9d6; stroke:none;" d="M134 427L135 428L134 427z"/>
<path style="fill:#3a495b; stroke:none;" d="M187 427L185 430L187 427z"/>
<path style="fill:#63a9d6; stroke:none;" d="M378 427L379 428L378 427M135 428L136 429L135 428z"/>
<path style="fill:#3a495b; stroke:none;" d="M148 428L151 431L148 428z"/>
<path style="fill:#63a9d6; stroke:none;" d="M136 429L137 430L136 429M137 430L138 431L137 430z"/>
<path style="fill:#3a495b; stroke:none;" d="M183 430L181 433L183 430z"/>
<path style="fill:#63a9d6; stroke:none;" d="M138 431L139 432L138 431z"/>
<path style="fill:#3a495b; stroke:none;" d="M152 431L153 432L152 431z"/>
<path style="fill:#63a9d6; stroke:none;" d="M194 431L195 432L194 431z"/>
<path style="fill:#c0847b; stroke:none;" d="M379 431L380 432L379 431M395 431L395 434L396 434L395 431z"/>
<path style="fill:#63a9d6; stroke:none;" d="M140 432L141 433L140 432z"/>
<path style="fill:#3a495b; stroke:none;" d="M154 432L154 433L158 435L158 434L154 432z"/>
<path style="fill:#63a9d6; stroke:none;" d="M193 432L194 433L193 432z"/>
<path style="fill:#c0847b; stroke:none;" d="M401 432L402 433L401 432M417 432L417 435L418 435L417 432z"/>
<path style="fill:#63a9d6; stroke:none;" d="M141 433L142 434L141 433z"/>
<path style="fill:#3a495b; stroke:none;" d="M179 433L176 435L176 436L180 434L179 433z"/>
<path style="fill:#63a9d6; stroke:none;" d="M192 433L193 434L192 433M143 434L144 435L143 434z"/>
<path style="fill:#c0847b; stroke:none;" d="M402 434L403 435L402 434z"/>
<path style="fill:#63a9d6; stroke:none;" d="M144 435L145 436L144 435z"/>
<path style="fill:#3a495b; stroke:none;" d="M159 435L159 436L164 438L164 437L159 435z"/>
<path style="fill:#63a9d6; stroke:none;" d="M189 435L190 436L189 435z"/>
<path style="fill:#c0847b; stroke:none;" d="M416 435L417 436L416 435z"/>
<path style="fill:#63a9d6; stroke:none;" d="M145.667 436.333L146.333 436.667L145.667 436.333z"/>
<path style="fill:#3a495b; stroke:none;" d="M174 436L169 439L169 440L175 437L174 436z"/>
<path style="fill:#63a9d6; stroke:none;" d="M188 436L189 437L188 436z"/>
<path style="fill:#c0847b; stroke:none;" d="M383 436L384 437L383 436M415 436L416 437L415 436z"/>
<path style="fill:#63a9d6; stroke:none;" d="M147 437L148 438L147 437M187 437L188 438L187 437z"/>
<path style="fill:#c0847b; stroke:none;" d="M384 437L385 438L384 437M405 437L406 438L405 437M414 437L415 438L414 437z"/>
<path style="fill:#63a9d6; stroke:none;" d="M148.667 438.333L149.333 438.667L148.667 438.333z"/>
<path style="fill:#3a495b; stroke:none;" d="M165 438L166 439L165 438z"/>
<path style="fill:#63a9d6; stroke:none;" d="M185 438L186 439L185 438z"/>
<path style="fill:#c0847b; stroke:none;" d="M406 438L407 439L406 438M413 438L414 439L413 438z"/>
<path style="fill:#63a9d6; stroke:none;" d="M150 439L151 440L150 439z"/>
<path style="fill:#3a495b; stroke:none;" d="M167 439L168 440L167 439z"/>
<path style="fill:#63a9d6; stroke:none;" d="M184 439L185 440L184 439z"/>
<path style="fill:#c0847b; stroke:none;" d="M383 439L384 440L383 439z"/>
<path style="fill:#63a9d6; stroke:none;" d="M152 440L153 441L152 440M183 440L184 441L183 440z"/>
<path style="fill:#c0847b; stroke:none;" d="M381 440L382 441L381 440z"/>
<path style="fill:#63a9d6; stroke:none;" d="M153.667 441.333L154.333 441.667L153.667 441.333M181 441L182 442L181 441z"/>
<path style="fill:#c0847b; stroke:none;" d="M378 441L379 442L378 441M402 441L403 442L402 441z"/>
<path style="fill:#63a9d6; stroke:none;" d="M155 442L156 443L155 442M180 442L181 443L180 442z"/>
<path style="fill:#c0847b; stroke:none;" d="M399 442L400 443L399 442z"/>
<path style="fill:#63a9d6; stroke:none;" d="M157 443L158 444L157 443M178 443L179 444L178 443z"/>
<path style="fill:#c0847b; stroke:none;" d="M397.333 443.667L397.667 444.333L397.333 443.667z"/>
<path style="fill:#63a9d6; stroke:none;" d="M159 444L160 445L159 444M176.667 444.333L177.333 444.667L176.667 444.333z"/>
<path style="fill:#c0847b; stroke:none;" d="M391 444L392 445L391 444M413 444L414 445L413 444z"/>
<path style="fill:#63a9d6; stroke:none;" d="M161 445L162 446L161 445M175 445L176 446L175 445z"/>
<path style="fill:#c0847b; stroke:none;" d="M379 445L379 446L385 446L379 445M386 445L386 446L390 446L386 445M398 445L399 446L398 445z"/>
<path style="fill:#63a9d6; stroke:none;" d="M162.667 446.333L163.333 446.667L162.667 446.333M173 446L174 447L173 446M164.667 447.333L165.333 447.667L164.667 447.333M172 447L173 448L172 447M166 448L167 449L166 448M170 448L171 449L170 448z"/>
</svg>
